<?xml version="1.0" encoding="UTF-8" standalone="no"?>
<svg width="3212px" height="1246px" viewBox="0 0 3212 1246" version="1.1" xmlns="http://www.w3.org/2000/svg" xmlns:xlink="http://www.w3.org/1999/xlink" xmlns:sketch="http://www.bohemiancoding.com/sketch/ns">
    <!-- Generator: Sketch 3.3.3 (12081) - http://www.bohemiancoding.com/sketch -->
    <title>Frame iPad</title>
    <desc>Created with Sketch.</desc>
    <defs>
        <path d="M22.9642968,43.0401228 C33.7661029,43.0401228 42.5226889,34.4454039 42.5226889,23.8432829 C42.5226889,13.2411423 33.7661029,4.64642349 22.9642968,4.64642349 C12.1624907,4.64642349 3.40590475,13.2411423 3.40590475,23.8432829 C3.40590475,34.4454039 12.1624907,43.0401228 22.9642968,43.0401228 L22.9642968,43.0401228 Z M22.9642968,45.7825285 C10.6192899,45.7825285 0.611848743,35.9599982 0.611848743,23.8432829 C0.611848743,11.726548 10.6192899,1.90401779 22.9642968,1.90401779 C35.3093037,1.90401779 45.3167449,11.726548 45.3167449,23.8432829 C45.3167449,35.9599982 35.3093037,45.7825285 22.9642968,45.7825285 L22.9642968,45.7825285 Z" id="path-1"></path>
        <path id="path-3" d="M4.99223844,9.82562278 C7.63752574,9.82562278 9.78199168,7.72074733 9.78199168,5.12439502 C9.78199168,2.52784698 7.63752574,0.42316726 4.99223844,0.42316726 C2.34695113,0.42316726 0.202485191,2.52784698 0.202485191,5.12439502 C0.202485191,7.72074733 2.34695113,9.82562278 4.99223844,9.82562278 L4.99223844,9.82562278 Z"></path>
        <path id="path-5" d="M1.97193418,0.0704626335 L615.068736,0.0704626335 L615.068736,802.420582 L1.97193418,802.420582 L1.97193418,0.0704626335 L1.97193418,0.0704626335 Z"></path>
    </defs>
    <g id="Page-1" stroke="none" stroke-width="1" fill="none" fill-rule="evenodd" sketch:type="MSPage">
        <g id="cforgood_area" sketch:type="MSLayerGroup" transform="translate(-1.000000, -1.000000)">
            <g id="Frame-iPad" transform="translate(1.000000, 0.957295)">
                <path d="M0.813607873,1245.49528 L1276.58408,1245.49528 L1276.58408,246.076536 L1932.62235,246.076536 L1932.62235,1245.53847 L3212.00453,1245.53843 L3212.00453,0.297465912 L21.8167722,0.297465912 L0.813607873,1245.49528 Z" id="Path-1049" fill-opacity="0.7" fill="#FFFFFF" sketch:type="MSShapeGroup"></path>
                <g id="iPad" transform="translate(1257.044086, 203.804270)">
                    <path d="M698.68121,890.767896 L698.68121,978.64769 L1.76277163,978.647691 L1.76277163,890.767896 L698.68121,890.767896 Z" id="Path-1048" fill="#FFFFFF" sketch:type="MSShapeGroup"></path>
                    <path d="M46.0210704,88.127059 L659.04151,88.127059 L659.04151,978.781057 L702.796054,978.781057 L702.796054,0.0861817528 L2.31172633,0.0861817528 L1.87346789,978.781057 L46.467676,978.781057" id="Path-1047" fill="#FFFFFF" sketch:type="MSShapeGroup"></path>
                    <path d="M45.9036324,88.1487544 L659.000634,88.1487544 L659.000634,890.498737 L45.9036324,890.498737 L45.9036324,88.1487544 L45.9036324,88.1487544 Z" id="Stroke-5" stroke="#ABAEBC" stroke-width="1.2" sketch:type="MSShapeGroup"></path>
                    <path d="M7.17684197,932.808612 C7.17684197,954.880641 25.3733314,972.771103 47.8198332,972.771103 L657.084214,972.771103 C679.529118,972.771103 697.727225,954.87927 697.727225,932.808612 L697.727225,45.0555302 C697.727225,22.9835899 679.530716,5.09307829 657.084214,5.09307829 L47.8198332,5.09307829 C25.3749629,5.09307829 7.17684197,22.9848758 7.17684197,45.0555302 L7.17684197,932.808612 L7.17684197,932.808612 Z" id="Stroke-7" stroke="#ABAEBC" stroke-width="1.2" sketch:type="MSShapeGroup"></path>
                    <path d="M1.99689537,45.0554911 C1.99689537,20.1725907 22.5135775,0 47.8197933,0 L657.084214,0 C682.392067,0 702.907172,20.1712011 702.907172,45.0554911 L702.907172,933.592117 C702.907172,958.475018 682.39047,978.647687 657.084214,978.647687 L47.8197933,978.647687 C22.5120599,978.647687 1.99689537,958.476584 1.99689537,933.592117 L1.99689537,45.0554911 L1.99689537,45.0554911 Z" id="Stroke-9" stroke="#ABAEBC" stroke-width="1.2" sketch:type="MSShapeGroup"></path>
                    <g id="Group-13" transform="translate(329.487737, 910.142349)">
                        <mask id="mask-2" sketch:name="Clip 12" fill="white">
                            <use xlink:href="#path-1"></use>
                        </mask>
                        <g id="Clip-12"></g>
                        <path d="M-9.37262813,-7.88245907 L55.3012217,-7.88245907 L55.3012217,55.5690053 L-9.37262813,55.5690053 L-9.37262813,-7.88245907 Z" id="Fill-11" fill-opacity="0.6971" fill="#999AA4" sketch:type="MSShapeGroup" mask="url(#mask-2)"></path>
                    </g>
                    <g id="Group-16" transform="translate(347.459795, 39.145907)">
                        <mask id="mask-4" sketch:name="Clip 15" fill="white">
                            <use xlink:href="#path-3"></use>
                        </mask>
                        <g id="Clip-15"></g>
                        <path d="M-9.78199168,-9.36330961 L19.7664686,-9.36330961 L19.7664686,19.6120996 L-9.78199168,19.6120996 L-9.78199168,-9.36330961 Z" id="Fill-14" fill-opacity="0.6971" fill="#999AA4" sketch:type="MSShapeGroup" mask="url(#mask-4)"></path>
                    </g>
                    <g id="Group-19" transform="translate(43.931698, 88.078292)">
                        <mask id="mask-6" sketch:name="Clip 18" fill="white">
                            <use xlink:href="#path-5"></use>
                        </mask>
                        <g id="Clip-18"></g>
                    </g>
                </g>
            </g>
        </g>
    </g>
</svg>