<?xml version="1.0" encoding="UTF-8" standalone="no"?>
<svg width="2041px" height="393px" viewBox="0 0 2041 393" version="1.1" xmlns="http://www.w3.org/2000/svg" xmlns:xlink="http://www.w3.org/1999/xlink" xmlns:sketch="http://www.bohemiancoding.com/sketch/ns">
    <!-- Generator: Sketch 3.3.3 (12081) - http://www.bohemiancoding.com/sketch -->
    <title>markers</title>
    <desc>Created with Sketch.</desc>
    <defs></defs>
    <g id="Page-1" stroke="none" stroke-width="1" fill="none" fill-rule="evenodd" sketch:type="MSPage">
        <g id="cforgood_area" sketch:type="MSLayerGroup" transform="translate(-587.000000, -246.000000)">
            <g id="markers" transform="translate(22.087240, 0.661922)" sketch:type="MSShapeGroup">
                <rect id="Rectangle-525" fill-opacity="0" fill="#D8D8D8" x="0.912760012" y="0" width="3175.08724" height="947.338078"></rect>
                <g id="marker-epicerie" transform="translate(1529.793838, 551.250823)">
                    <path d="M7.10542736e-15,33.4021561 C7.10542736e-15,40.6079895 2.42233717,47.2509553 6.51325998,52.6060332 L32.6391279,86.7941285 L58.7648164,52.6060332 C62.856098,47.2509553 65.2780763,40.6081657 65.2780763,33.4021561 C65.2780763,15.711173 50.6635119,1.36693743 32.6389484,1.36693743 C14.6145643,1.36693743 7.10542736e-15,15.711173 7.10542736e-15,33.4021561 L7.10542736e-15,33.4021561 Z" id="White-Shadow" fill="#FFFFFF"></path>
                    <path d="M32.4454987,3.40749862 C15.6557584,3.40749862 2.04227027,16.7510206 2.04227027,33.2078072 C2.04227027,39.9109316 4.29868091,46.0904566 8.10938149,51.0719421 L32.4456657,82.8749334 L56.7817829,51.0719421 C60.5928177,46.0904566 62.8488942,39.9110955 62.8488942,33.2078072 C62.8488942,16.7510206 49.235406,3.40749862 32.4454987,3.40749862 L32.4454987,3.40749862 L32.4454987,3.40749862 Z" id="Main-Shape" fill="#EEAA06"></path>
                    <g id="Icon-epicerie" transform="translate(11.526274, 16.064968)">
                        <g id="Group" transform="translate(7.659685, 0.000000)">
                            <g transform="translate(19.631968, 3.360837)">
                                <g>
                                    <path d="M3.45007677,16.8422319 L3.45007677,16.8422319 C1.55768391,16.8422319 0.0257468415,15.3330259 0.0257468415,13.4687126 L0.0257468415,3.40522535 C0.0257468415,1.54091203 1.55768391,0.0317060089 3.45007677,0.0317060089 L3.45007677,0.0317060089 C5.34246962,0.0317060089 6.8744067,1.54091203 6.8744067,3.40522535 L6.8744067,13.4750538 C6.86796999,15.3330259 5.33603291,16.8422319 3.45007677,16.8422319 L3.45007677,16.8422319 L3.45007677,16.8422319 Z" id="Shape" fill="#EDA914"></path>
                                    <g id="Oval" transform="translate(1.029873, 3.360837)" fill="#000000">
                                        <ellipse cx="2.42020311" cy="0.697532196" rx="2.37514614" ry="0.67850859"></ellipse>
                                        <ellipse cx="2.42020311" cy="5.07930263" rx="2.37514614" ry="0.67850859"></ellipse>
                                        <ellipse cx="2.42020311" cy="9.45473186" rx="2.37514614" ry="0.67850859"></ellipse>
                                    </g>
                                </g>
                                <path d="M3.45007677,0.0317060089 L3.45007677,0.0317060089 L3.45007677,16.8422319 C5.34246962,16.8422319 6.8744067,15.3330259 6.8744067,13.4687126 L6.8744067,3.40522535 C6.86796999,1.54091203 5.33603291,0.0317060089 3.45007677,0.0317060089 L3.45007677,0.0317060089 L3.45007677,0.0317060089 Z" id="Shape" opacity="0.05" fill="#000000"></path>
                            </g>
                            <g transform="translate(13.774560, 6.150965)">
                                <g>
                                    <ellipse id="Oval" fill="#F35B5A" cx="3.66248821" cy="4.65444212" rx="3.60455782" ry="3.36083695"></ellipse>
                                    <path d="M3.85558951,1.20482834 L3.82340597,1.20482834 C3.95214018,0.741920609 4.30615924,0.405836914 4.30615924,0.405836914 C4.30615924,0.405836914 4.19029845,0.202918456 4.00363386,0.0190236053 C3.66248821,0.361448501 3.59812111,0.875085846 3.533754,1.20482834 L3.43720335,1.20482834 C3.43720335,1.20482834 2.76778547,1.12239272 2.20135496,1.74383049 C2.70985508,1.66773607 3.32777927,1.68041847 3.32777927,1.68041847 L3.64317807,2.32722105 L3.9585769,1.68041847 C3.9585769,1.68041847 4.57650109,1.66773607 5.08500121,1.74383049 C4.52500741,1.11605151 3.85558951,1.20482834 3.85558951,1.20482834 L3.85558951,1.20482834 L3.85558951,1.20482834 Z" id="Shape" fill="#ABCA46"></path>
                                </g>
                                <path d="M4.75672897,1.45213521 C4.29328584,1.14775752 3.85558951,1.20482834 3.85558951,1.20482834 L3.82340597,1.20482834 C3.95214018,0.741920609 4.30615924,0.405836914 4.30615924,0.405836914 C4.30615924,0.405836914 4.19029845,0.202918456 4.00363386,0.0190236053 C3.82984268,0.196577256 3.72685532,0.412178115 3.66248821,0.634120179 L3.66248821,8.02162025 C5.65143171,8.02162025 7.26704603,6.51875543 7.26704603,4.6607833 C7.26704603,3.15791848 6.21142553,1.88333693 4.75672897,1.45213521 L4.75672897,1.45213521 L4.75672897,1.45213521 Z" id="Shape" opacity="0.05" fill="#000000"></path>
                            </g>
                            <g id="Shape" transform="translate(8.818294, 0.000000)">
                                <g id="Group">
                                    <path d="M4.84040621,0.0253648072 C4.5314441,0.0253648072 4.25466556,0.171212448 4.08087438,0.393154511 C3.90708321,0.171212448 3.63030465,0.0253648072 3.32134256,0.0253648072 C2.7935323,0.0253648072 2.36227271,0.450225326 2.36227271,0.970203873 C2.36227271,1.49018242 2.7935323,1.91504294 3.32134256,1.91504294 L3.32134256,6.79776831 L4.84040621,6.79776831 L4.84040621,1.91504294 C5.36821647,1.91504294 5.79947606,1.49018242 5.79947606,0.970203873 C5.79947606,0.443884125 5.37465317,0.0253648072 4.84040621,0.0253648072 L4.84040621,0.0253648072 L4.84040621,0.0253648072 Z" id="Shape" fill="#FFFFFF"></path>
                                    <path d="M8.00083102,12.6887448 C7.34428654,8.34502154 5.81234949,6.10023612 4.08731109,6.10023612 C2.36227271,6.10023612 0.830335639,8.34502154 0.17379118,12.6887448 C-0.373329203,16.2651826 0.386202623,21.05279 4.08087438,21.05279 C7.77554615,21.05279 8.53507797,16.2651826 8.00083102,12.6887448 L8.00083102,12.6887448 L8.00083102,12.6887448 Z" id="Shape" fill="#DA6E3D"></path>
                                </g>
                                <path d="M8.00083102,12.6887448 C7.44083721,8.99182413 6.25004579,6.81679191 4.84684293,6.25242496 L4.84684293,1.90870174 C5.37465317,1.90870174 5.80591277,1.48384122 5.80591277,0.963862671 C5.80591277,0.443884125 5.37465317,0.0190236053 4.84684293,0.0190236053 C4.53788082,0.0190236053 4.26110227,0.164871246 4.08731109,0.386813309 L4.08731109,0.386813309 L4.08731109,21.05279 C7.78198287,21.05279 8.53507797,16.2651826 8.00083102,12.6887448 L8.00083102,12.6887448 L8.00083102,12.6887448 Z" opacity="0.05" fill="#000000"></path>
                            </g>
                            <g transform="translate(3.540190, 3.931545)">
                                <g>
                                    <path d="M7.35072326,6.23340136 C5.53557094,3.30376613 5.78660264,0.818015029 5.78660264,0.818015029 L4.23535544,0.818015029 L2.68410823,0.818015029 C2.68410823,0.818015029 2.93513994,3.30376613 1.11998761,6.23340136 C-0.469879857,8.79524686 0.186664601,21.7756869 0.186664601,21.7756869 C0.186664601,21.7756869 1.25515853,23.0566097 4.22891873,23.0629509 L4.22891873,23.0629509 C7.20911564,23.0629509 8.27117285,21.7756869 8.27117285,21.7756869 C8.27117285,21.7756869 8.93415402,8.79524686 7.35072326,6.23340136 L7.35072326,6.23340136 L7.35072326,6.23340136 Z" id="Shape" fill="#FFFFFF"></path>
                                    <rect id="Rectangle-path" fill="#ABCA46" x="2.55537403" y="1.59798285" width="3.35996282" height="0.399495712"></rect>
                                    <path d="M0.148044339,20.8118242 L8.32266653,20.8118242 C8.39347035,18.8523929 8.52220454,14.2803864 8.25186271,10.684925 L0.218848153,10.684925 C-0.051493683,14.2803864 0.0708038142,18.8587341 0.148044339,20.8118242 L0.148044339,20.8118242 L0.148044339,20.8118242 Z" id="Shape" fill="#1FA1DD"></path>
                                    <path d="M5.88315329,1.29360516 L2.58112086,1.29360516 C2.48457021,1.29360516 2.40732968,1.21751074 2.40732968,1.12239272 L2.40732968,0.228283264 C2.40732968,0.133165237 2.48457021,0.057070816 2.58112086,0.057070816 L5.88315329,0.057070816 C5.97970396,0.057070816 6.05694447,0.133165237 6.05694447,0.228283264 L6.05694447,1.12239272 C6.06338118,1.21116954 5.97970396,1.29360516 5.88315329,1.29360516 L5.88315329,1.29360516 L5.88315329,1.29360516 Z" id="Shape" fill="#ABCA46"></path>
                                </g>
                                <path d="M8.41278047,15.8466633 L8.41278047,15.8403221 C8.41278047,15.3710731 8.40634376,14.895483 8.39990706,14.4135516 L8.39990706,14.4135516 L8.39990706,14.2423392 L8.39990706,14.2296568 L8.39990706,14.0647856 L8.39990706,14.045762 C8.39990706,13.9950323 8.39990706,13.9379615 8.39347035,13.8872319 L8.39347035,13.8682083 C8.39347035,13.8111375 8.39347035,13.7604079 8.38703364,13.7033371 L8.38703364,13.6843134 C8.38703364,13.6272426 8.38703364,13.576513 8.38059692,13.5194422 L8.38059692,13.5067598 C8.38059692,13.449689 8.38059692,13.3926182 8.37416021,13.3292061 L8.37416021,13.3292061 C8.36128679,12.8472748 8.34197667,12.3716847 8.31622982,11.9024358 L8.31622982,11.8897533 C8.31622982,11.8326825 8.30979311,11.7819529 8.30979311,11.7248821 L8.30979311,11.7058585 C8.30979311,11.6551289 8.30335639,11.6043993 8.30335639,11.5536697 L8.30335639,11.5283048 C8.30335639,11.4775752 8.29691968,11.4268456 8.29691968,11.3824572 L8.29691968,11.3570924 C8.29691968,11.3063628 8.29048299,11.2619744 8.29048299,11.2112447 L8.29048299,11.1858799 C8.29048299,11.1351503 8.28404627,11.0844207 8.27760956,11.0400323 L8.27760956,11.0210087 C8.27117285,10.9702791 8.27117285,10.9195495 8.26473614,10.8688199 L8.26473614,10.8561375 C8.25829942,10.7990666 8.25829942,10.748337 8.25186271,10.6912662 L8.25186271,10.6912662 C8.09738167,8.69378764 7.82703983,7.00068676 7.35072326,6.23340136 C6.30797618,4.54664169 5.94752039,3.00572964 5.82522289,2.00381976 L5.91533685,2.00381976 L5.91533685,1.60432405 L5.78660264,1.60432405 C5.78016592,1.49018242 5.77372921,1.38872319 5.77372921,1.29360516 L5.88315329,1.29360516 C5.97970396,1.29360516 6.05694447,1.21751074 6.05694447,1.12239272 L6.05694447,0.228283264 C6.05694447,0.133165237 5.97970396,0.057070816 5.88315329,0.057070816 L4.22891873,0.057070816 L4.22891873,23.069292 C7.20911564,23.069292 8.27117285,21.7820281 8.27117285,21.7820281 C8.27117285,21.7820281 8.29048299,21.3888737 8.31622982,20.7293886 L8.31622982,20.7293886 C8.31622982,20.6976826 8.31622982,20.6659766 8.32266653,20.6406118 L8.32266653,20.6279295 L8.32266653,20.5454937 L8.32266653,20.5264701 L8.32266653,20.4376933 L8.32266653,20.425011 L8.32266653,20.3298929 L8.32266653,20.3108694 L8.32266653,20.2157513 L8.32266653,20.1967277 C8.32266653,20.1650217 8.32266653,20.1333157 8.32910324,20.0952684 L8.32910324,20.0825861 C8.32910324,20.0508801 8.32910324,20.0128328 8.33553996,19.9811267 L8.33553996,19.9621032 C8.34197667,19.7211376 8.34841338,19.4674895 8.35485007,19.1948178 L8.35485007,19.1884766 C8.35485007,19.1440882 8.35485007,19.0996998 8.36128679,19.0553114 L8.36128679,19.0362878 L8.36128679,18.9158049 L8.36128679,18.8967813 L8.36128679,18.7762985 L8.36128679,18.7509337 L8.36128679,18.636792 L8.36128679,18.605086 L8.36128679,18.4846032 L8.36128679,18.4528972 L8.36128679,18.3324144 L8.36128679,18.3070495 L8.36128679,18.1738843 L8.36128679,18.1548607 L8.36128679,18.0153543 L8.36128679,18.0026719 C8.3677235,17.6412234 8.37416021,17.2607513 8.37416021,16.8675967 L8.37416021,16.8612555 L8.37416021,16.7027255 L8.37416021,16.6837019 L8.37416021,16.531513 L8.37416021,16.5124894 L8.37416021,16.3666418 L8.37416021,16.3476182 L8.37416021,16.1954294 L8.37416021,16.1764057 L8.37416021,16.0242169 L8.37416021,16.0051933 C8.41278047,15.9544637 8.41278047,15.9037341 8.41278047,15.8466633 L8.41278047,15.8466633 L8.41278047,15.8466633 Z" id="Shape" opacity="0.05" fill="#000000"></path>
                            </g>
                            <g id="Shape" transform="translate(0.000000, 1.204829)">
                                <g id="Group">
                                    <path d="M4.98845054,6.86118032 C4.89833661,5.57391636 4.13236808,4.59103009 3.20548177,4.59103009 L2.55537403,4.59103009 L1.90526627,4.59103009 C0.978379979,4.59103009 0.212411442,5.57391636 0.122297497,6.86118032 C-0.051493683,9.41034344 -0.141607628,13.6335838 0.740221694,17.000762 C2.09836759,22.1942062 2.55537403,22.4478542 2.55537403,22.4478542 C2.55537403,22.4478542 3.00594376,22.1942062 4.37052635,17.000762 C5.25235568,13.6335838 5.16224173,9.41034344 4.98845054,6.86118032 L4.98845054,6.86118032 L4.98845054,6.86118032 Z" id="Shape" fill="#DA6E3D"></path>
                                    <path d="M4.89833661,2.67598715 C4.41558332,2.33356225 3.11536784,3.63350863 3.11536784,3.63350863 C3.11536784,3.63350863 3.39214638,0.0317060089 2.56181073,0.0317060089 C1.73147509,0.0317060089 2.00825364,3.63350863 2.00825364,3.63350863 C2.00825364,3.63350863 0.714474853,2.33356225 0.225284864,2.67598715 C-0.218848153,2.98670604 0.695164721,3.99495712 1.51262694,4.74956013 C2.10480431,5.29490349 3.01881717,5.29490349 3.61099453,4.74956013 C4.42202003,4.00129833 5.34246962,2.99304725 4.89833661,2.67598715 L4.89833661,2.67598715 L4.89833661,2.67598715 Z" id="Shape" fill="#ABCA46"></path>
                                    <g transform="translate(0.257468, 7.609442)" id="Shape" fill="#000000">
                                        <g>
                                            <path d="M2.30434232,0.279012878 C1.47400668,0.279012878 0.695164721,0.190236053 0.0257468415,0.0443884125 C0.630797618,0.475590134 1.422513,0.735579407 2.30434232,0.735579407 C3.17973492,0.735579407 3.97788701,0.475590134 4.58293779,0.0443884125 C3.91351991,0.190236053 3.13467795,0.279012878 2.30434232,0.279012878 L2.30434232,0.279012878 L2.30434232,0.279012878 Z"></path>
                                        </g>
                                        <path d="M2.30434232,2.56184553 C1.53193707,2.56184553 0.804588799,2.4794099 0.180227891,2.33990346 C0.740221694,2.73939917 1.4868801,2.98036484 2.30434232,2.98036484 C3.12180453,2.98036484 3.86202623,2.73939917 4.42845674,2.33990346 C3.80409583,2.48575109 3.07674756,2.56184553 2.30434232,2.56184553 L2.30434232,2.56184553 L2.30434232,2.56184553 Z"></path>
                                        <path d="M2.30434232,4.85101936 C1.58343075,4.85101936 0.914012874,4.77492494 0.334708939,4.64810091 C0.856082482,5.01589061 1.54481049,5.24417388 2.30434232,5.24417388 C3.06387415,5.24417388 3.75260215,5.01589061 4.2739757,4.64810091 C3.69467176,4.77492494 3.01881717,4.85101936 2.30434232,4.85101936 L2.30434232,4.85101936 L2.30434232,4.85101936 Z"></path>
                                        <path d="M2.30434232,7.14019321 C1.64136115,7.14019321 1.02343695,7.07043999 0.489189989,6.94995715 C0.971943268,7.29238204 1.60274089,7.50164172 2.30434232,7.50164172 C2.99950705,7.50164172 3.63674136,7.29238204 4.11949465,6.94995715 C3.58524768,7.07043999 2.96732348,7.14019321 2.30434232,7.14019321 L2.30434232,7.14019321 L2.30434232,7.14019321 Z"></path>
                                        <g transform="translate(0.643671, 9.258154)">
                                            <path d="M1.66067128,0.171212448 C1.0556205,0.171212448 0.489189989,0.10780043 0,0 C0.437696306,0.310718887 1.02343695,0.50095494 1.66067128,0.50095494 C2.29790561,0.50095494 2.88364626,0.310718887 3.32134256,0 C2.83215258,0.10780043 2.26572206,0.171212448 1.66067128,0.171212448 L1.66067128,0.171212448 L1.66067128,0.171212448 Z"></path>
                                        </g>
                                    </g>
                                </g>
                                <path d="M4.98845054,6.86118032 C4.91764674,5.80219963 4.38339977,4.9524786 3.68179835,4.68614811 C4.47351371,3.94422751 5.32315948,2.98670604 4.89189989,2.68232835 C4.40914662,2.33990346 3.10893112,3.63984981 3.10893112,3.63984981 C3.10893112,3.63984981 3.38570967,0.0380472106 2.55537403,0.0380472106 L2.55537403,0.0380472106 L2.55537403,22.4478542 C2.55537403,22.4478542 3.00594376,22.1942062 4.37052635,17.000762 C5.25235568,13.6335838 5.16224173,9.41034344 4.98845054,6.86118032 L4.98845054,6.86118032 L4.98845054,6.86118032 Z" opacity="0.05" fill="#000000"></path>
                            </g>
                        </g>
                        <path d="M31.5913747,27.6412985 L10.2472429,27.6412985 C9.57782506,27.6412985 9.03714138,27.1086376 9.03714138,26.4491526 L9.03714138,15.2442491 C9.03714138,14.5847641 9.57782506,14.0521032 10.2472429,14.0521032 L31.5849379,14.0521032 C32.2543557,14.0521032 32.7950395,14.5847641 32.7950395,15.2442491 L32.7950395,26.4491526 C32.7950395,27.1086376 32.2543557,27.6412985 31.5913747,27.6412985 L31.5913747,27.6412985 L31.5913747,27.6412985 Z" id="Shape" fill="#FFFFFF"></path>
                        <g id="Group" transform="translate(0.000000, 10.336160)">
                            <path d="M6.4367104,1.12239272 L6.4367104,16.0495817 C6.4367104,18.0090131 8.09094495,19.9240559 10.0863252,19.9240559 L32.0998747,19.9240559 C34.0888182,19.9240559 35.4083439,18.0153543 35.4083439,16.0495817 L35.4083439,1.12239272 L6.4367104,1.12239272 L6.4367104,1.12239272 Z M11.5474584,15.1174251 C11.5474584,15.4788735 11.2320596,15.7705688 10.8651671,15.7705688 C10.4982746,15.7705688 10.1828758,15.4788735 10.1828758,15.1174251 L10.1828758,5.92902366 C10.1828758,5.56757517 10.4982746,5.27587987 10.8651671,5.27587987 C11.2320596,5.27587987 11.5474584,5.56757517 11.5474584,5.92902366 L11.5474584,15.1174251 L11.5474584,15.1174251 Z M14.2766236,15.1174251 C14.2766236,15.4788735 13.9612248,15.7705688 13.5943323,15.7705688 C13.2274399,15.7705688 12.912041,15.4788735 12.912041,15.1174251 L12.912041,5.92902366 C12.912041,5.56757517 13.2274399,5.27587987 13.5943323,5.27587987 C13.9612248,5.27587987 14.2766236,5.56757517 14.2766236,5.92902366 L14.2766236,15.1174251 L14.2766236,15.1174251 Z M17.3404978,15.1174251 C17.3404978,15.4788735 17.025099,15.7705688 16.6582065,15.7705688 C16.291314,15.7705688 15.9759152,15.4788735 15.9759152,15.1174251 L15.9759152,5.92902366 C15.9759152,5.56757517 16.291314,5.27587987 16.6582065,5.27587987 C17.025099,5.27587987 17.3404978,5.56757517 17.3404978,5.92902366 L17.3404978,15.1174251 L17.3404978,15.1174251 Z M20.069663,15.1174251 C20.069663,15.4788735 19.7542642,15.7705688 19.3873717,15.7705688 C19.0204792,15.7705688 18.7050804,15.4788735 18.7050804,15.1174251 L18.7050804,5.92902366 C18.7050804,5.56757517 19.0204792,5.27587987 19.3873717,5.27587987 C19.7542642,5.27587987 20.069663,5.56757517 20.069663,5.92902366 L20.069663,15.1174251 L20.069663,15.1174251 Z M23.1335371,15.1174251 C23.1335371,15.4788735 22.8181382,15.7705688 22.4512459,15.7705688 C22.0843533,15.7705688 21.7689544,15.4788735 21.7689544,15.1174251 L21.7689544,5.92902366 C21.7689544,5.56757517 22.0843533,5.27587987 22.4512459,5.27587987 C22.8181382,5.27587987 23.1335371,5.56757517 23.1335371,5.92902366 L23.1335371,15.1174251 L23.1335371,15.1174251 Z M25.8627024,15.1174251 C25.8627024,15.4788735 25.5473035,15.7705688 25.180411,15.7705688 C24.8135186,15.7705688 24.4981197,15.4788735 24.4981197,15.1174251 L24.4981197,5.92902366 C24.4981197,5.56757517 24.8135186,5.27587987 25.180411,5.27587987 C25.5473035,5.27587987 25.8627024,5.56757517 25.8627024,5.92902366 L25.8627024,15.1174251 L25.8627024,15.1174251 Z M28.9265765,15.1174251 C28.9265765,15.4788735 28.6111776,15.7705688 28.2442853,15.7705688 C27.8773927,15.7705688 27.5619938,15.4788735 27.5619938,15.1174251 L27.5619938,5.92902366 C27.5619938,5.56757517 27.8773927,5.27587987 28.2442853,5.27587987 C28.6111776,5.27587987 28.9265765,5.56757517 28.9265765,5.92902366 L28.9265765,15.1174251 L28.9265765,15.1174251 Z M31.6557416,15.1174251 C31.6557416,15.4788735 31.3403429,15.7705688 30.9734504,15.7705688 C30.606558,15.7705688 30.2911591,15.4788735 30.2911591,15.1174251 L30.2911591,5.92902366 C30.2911591,5.56757517 30.606558,5.27587987 30.9734504,5.27587987 C31.3403429,5.27587987 31.6557416,5.56757517 31.6557416,5.92902366 L31.6557416,15.1174251 L31.6557416,15.1174251 Z" id="Shape" fill="#F35B5A"></path>
                            <path d="M36.2386796,2.53648072 L5.59993803,2.53648072 C5.49695067,2.53648072 5.41327344,2.4540451 5.41327344,2.35258585 L5.41327344,0.221942062 C5.41327344,0.120482834 5.49695067,0.0380472106 5.59993803,0.0380472106 L36.2386796,0.0380472106 C36.3416669,0.0380472106 36.4253442,0.120482834 36.4253442,0.221942062 L36.4253442,2.35258585 C36.4253442,2.4540451 36.3416669,2.53648072 36.2386796,2.53648072 L36.2386796,2.53648072 L36.2386796,2.53648072 Z" id="Shape" fill="#ABCA46"></path>
                            <g transform="translate(0.000000, 0.380473)">
                                <g>
                                    <path d="M0.418386176,10.8941847 L0.238158285,10.716631 C-0.032183552,10.4503005 -0.032183552,10.0127576 0.238158285,9.74008593 L9.912534,0.209259659 C10.1828758,-0.057070816 10.6270088,-0.057070816 10.9037874,0.209259659 L11.0840153,0.386813309 C11.3543571,0.653143784 11.3543571,1.09068671 11.0840153,1.36335838 L1.40320286,10.8941847 C1.13286103,11.1668563 0.688728012,11.1668563 0.418386176,10.8941847 L0.418386176,10.8941847 L0.418386176,10.8941847 Z" id="Shape" fill="#FFFFFF"></path>
                                    <ellipse id="Oval" fill="#ABCA46" cx="10.4081607" cy="0.881427048" rx="0.366892493" ry="0.361448501"></ellipse>
                                </g>
                                <g transform="translate(30.510007, 0.000000)">
                                    <path d="M10.9102241,10.8941847 L11.090452,10.716631 C11.3607938,10.4503005 11.3607938,10.0127576 11.090452,9.74008593 L1.40963957,0.215600861 C1.13929774,-0.0507296143 0.695164721,-0.0507296143 0.418386176,0.215600861 L0.238158285,0.393154511 C-0.032183552,0.659484985 -0.032183552,1.09702791 0.238158285,1.36969959 L9.912534,10.9005259 C10.1957493,11.1668563 10.6398823,11.1668563 10.9102241,10.8941847 L10.9102241,10.8941847 L10.9102241,10.8941847 Z" id="Shape" fill="#FFFFFF"></path>
                                    <ellipse id="Oval" fill="#ABCA46" cx="0.920449585" cy="0.881427048" rx="0.366892493" ry="0.361448501"></ellipse>
                                </g>
                            </g>
                        </g>
                        <path d="M41.6004593,20.4630581 L35.4019071,14.3564808 L35.4019071,12.8726396 L36.2386796,12.8726396 C36.3416669,12.8726396 36.4253442,12.790204 36.4253442,12.6887448 L36.4253442,10.558101 C36.4253442,10.4566417 36.3416669,10.3742061 36.2386796,10.3742061 L20.9193088,10.3742061 L20.9193088,30.2538737 L32.0934381,30.2538737 C34.0823814,30.2538737 35.4019071,28.3451719 35.4019071,26.3793995 L35.4019071,16.6583371 L40.428978,21.6108157 C40.6993197,21.8771462 41.1434528,21.8771462 41.4202313,21.6108157 L41.6004593,21.433262 C41.8708012,21.1669316 41.8708012,20.7357299 41.6004593,20.4630581 L41.6004593,20.4630581 L41.6004593,20.4630581 Z M23.1335371,25.4535839 C23.1335371,25.8150325 22.8181382,26.1067277 22.4512459,26.1067277 C22.0843533,26.1067277 21.7689544,25.8150325 21.7689544,25.4535839 L21.7689544,16.2651826 C21.7689544,15.9037341 22.0843533,15.6120388 22.4512459,15.6120388 C22.8181382,15.6120388 23.1335371,15.9037341 23.1335371,16.2651826 L23.1335371,25.4535839 L23.1335371,25.4535839 Z M25.8627024,25.4535839 C25.8627024,25.8150325 25.5473035,26.1067277 25.180411,26.1067277 C24.8135186,26.1067277 24.4981197,25.8150325 24.4981197,25.4535839 L24.4981197,16.2651826 C24.4981197,15.9037341 24.8135186,15.6120388 25.180411,15.6120388 C25.5473035,15.6120388 25.8627024,15.9037341 25.8627024,16.2651826 L25.8627024,25.4535839 L25.8627024,25.4535839 Z M28.9265765,25.4535839 C28.9265765,25.8150325 28.6111776,26.1067277 28.2442853,26.1067277 C27.8773927,26.1067277 27.5619938,25.8150325 27.5619938,25.4535839 L27.5619938,16.2651826 C27.5619938,15.9037341 27.8773927,15.6120388 28.2442853,15.6120388 C28.6111776,15.6120388 28.9265765,15.9037341 28.9265765,16.2651826 L28.9265765,25.4535839 L28.9265765,25.4535839 Z M31.6557416,25.4535839 C31.6557416,25.8150325 31.3403429,26.1067277 30.9734504,26.1067277 C30.606558,26.1067277 30.2911591,25.8150325 30.2911591,25.4535839 L30.2911591,16.2651826 C30.2911591,15.9037341 30.606558,15.6120388 30.9734504,15.6120388 C31.3403429,15.6120388 31.6557416,15.9037341 31.6557416,16.2651826 L31.6557416,25.4535839 L31.6557416,25.4535839 Z" id="Shape" opacity="0.05" fill="#000000"></path>
                    </g>
                </g>
                <g id="marker-restaurant" transform="translate(1799.374713, 367.265058)">
                    <path d="M7.10542736e-15,33.4021561 C7.10542736e-15,40.6079895 2.42233717,47.2509553 6.51325998,52.6060332 L32.6391279,86.7941285 L58.7648164,52.6060332 C62.856098,47.2509553 65.2780763,40.6081657 65.2780763,33.4021561 C65.2780763,15.711173 50.6635119,1.36693743 32.6389484,1.36693743 C14.6145643,1.36693743 7.10542736e-15,15.711173 7.10542736e-15,33.4021561 L7.10542736e-15,33.4021561 Z" id="White-Shadow" fill="#FFFFFF"></path>
                    <path d="M32.4454987,3.40749862 C15.6557584,3.40749862 2.04227027,16.7510206 2.04227027,33.2078072 C2.04227027,39.9109316 4.29868091,46.0904566 8.10938149,51.0719421 L32.4456657,82.8749334 L56.7817829,51.0719421 C60.5928177,46.0904566 62.8488942,39.9110955 62.8488942,33.2078072 C62.8488942,16.7510206 49.235406,3.40749862 32.4454987,3.40749862 L32.4454987,3.40749862 L32.4454987,3.40749862 Z" id="Main-Shape" fill="#DB6F3A"></path>
                    <g id="Icon-Restaurant" transform="translate(21.881964, 14.973151)">
                        <g id="Group" transform="translate(11.535428, 1.150459)">
                            <path d="M9.21472488,5.41100434 C9.21472488,2.42963712 7.16070369,0.015185232 4.62438471,0.015185232 C2.08806573,0.015185232 0.03404455,2.42963712 0.03404455,5.41100434 C0.03404455,8.08360517 1.68520523,10.2955873 3.85270825,10.7258355 L3.49524048,30.5526867 L3.50091456,30.5526867 C3.52928503,31.0639229 4.0172569,31.4688624 4.62438471,31.4688624 C5.23151253,31.4688624 5.71948441,31.0588611 5.74785486,30.5526867 L5.75352896,30.5526867 L5.39606118,10.7258355 C7.56356421,10.2955873 9.21472488,8.08360517 9.21472488,5.41100434 L9.21472488,5.41100434 L9.21472488,5.41100434 Z" id="Shape" fill="#FFFFFF"></path>
                            <path d="M9.21472488,5.41100434 C9.21472488,2.42963712 7.16070369,0.015185232 4.62438471,0.015185232 L4.62438471,31.4688624 C5.23151253,31.4688624 5.71948441,31.0588611 5.74785486,30.5526867 L5.75352896,30.5526867 L5.39606118,10.7258355 C7.56356421,10.2955873 9.21472488,8.08360517 9.21472488,5.41100434 L9.21472488,5.41100434 L9.21472488,5.41100434 Z" id="Shape" opacity="0.05" fill="#000000"></path>
                        </g>
                        <g id="Group" transform="translate(0.000000, 1.555398)">
                            <path d="M6.27554538,0.0455556959 C5.98616671,0.0455556959 5.74785486,0.17716104 5.74785486,0.334075105 L5.74785486,0.334075105 L5.74785486,0.364445568 L5.74785486,7.03582417 C5.74785486,7.17249126 5.55493575,7.27878788 5.3166239,7.27878788 C5.07831205,7.27878788 4.88539293,7.1674295 4.88539293,7.03582417 L4.88539293,0.334075105 C4.88539293,0.17716104 4.65842926,0.0455556959 4.38039878,0.0455556959 C4.09669418,0.0455556959 3.86973053,0.17716104 3.86973053,0.334075105 L3.86973053,0.334075105 L3.86973053,7.03582417 C3.86973053,7.17249126 3.6768114,7.27878788 3.43849955,7.27878788 C3.2001877,7.27878788 3.00726858,7.1674295 3.00726858,7.03582417 L3.00726858,0.334075105 C3.00726858,0.17716104 2.76328265,0.0455556959 2.47390398,0.0455556959 C2.1788512,0.0455556959 1.94053935,0.17716104 1.94053935,0.334075105 L1.94053935,0.334075105 L1.94053935,7.03582417 C1.94053935,7.17249126 1.74762023,7.27878788 1.50930838,7.27878788 C1.27099653,7.27878788 1.07807742,7.1674295 1.07807742,7.03582417 L1.07807742,0.359383824 L1.07807742,0.329013361 C1.07807742,0.172099296 0.839765568,0.040493952 0.550386893,0.040493952 C0.261008218,0.040493952 0.0226963668,0.172099296 0.0226963668,0.329013361 L0.0226963668,0.329013361 L0.0226963668,0.465680447 L0.0226963668,1.36667088 L0.0226963668,7.74953006 C0.0226963668,8.45817424 0.37449005,9.13138618 0.987291951,9.58188139 C1.11779606,9.67805453 1.25397426,9.76916592 1.39582655,9.84509209 C2.16182893,10.2905256 2.63277853,11.0447254 2.62143035,11.8596662 L2.29233303,30.1477474 L2.29800713,30.1477474 C2.32637758,30.6589835 2.81434948,31.0639229 3.41580318,31.0639229 L3.41580318,31.0639229 C4.022931,31.0639229 4.51090288,30.6539218 4.53359925,30.1477474 L4.53927333,30.1477474 L4.21017603,11.8596662 C4.19315375,11.0447254 4.66410336,10.2905256 5.43577983,9.84509209 C5.57763211,9.76410418 5.71381031,9.67805453 5.84431443,9.57681965 C6.45711633,9.12632443 6.80891001,8.45311249 6.80891001,7.74446832 L6.80891001,7.74446832 L6.80891001,1.36667088 L6.80891001,0.465680447 L6.80891001,0.329013361 C6.80323591,0.172099296 6.57059816,0.0455556959 6.27554538,0.0455556959 L6.27554538,0.0455556959 L6.27554538,0.0455556959 Z" id="Shape" fill="#FFFFFF"></path>
                            <path d="M6.27554538,0.0455556959 C5.98616671,0.0455556959 5.74785486,0.17716104 5.74785486,0.334075105 L5.74785486,0.334075105 L5.74785486,0.364445568 L5.74785486,7.03582417 C5.74785486,7.17249126 5.55493575,7.27878788 5.3166239,7.27878788 C5.07831205,7.27878788 4.88539293,7.1674295 4.88539293,7.03582417 L4.88539293,0.334075105 C4.88539293,0.17716104 4.65842926,0.0455556959 4.38039878,0.0455556959 C4.09669418,0.0455556959 3.86973053,0.17716104 3.86973053,0.334075105 L3.86973053,0.334075105 L3.86973053,7.03582417 C3.86973053,7.17249126 3.6768114,7.27878788 3.43849955,7.27878788 L3.4101291,7.27878788 L3.4101291,31.0588611 C4.0172569,31.0588611 4.50522878,30.64886 4.52792516,30.1426856 L4.53359925,30.1426856 L4.20450193,11.8546045 C4.18747965,11.0396637 4.65842926,10.2854638 5.43010573,9.84003035 C5.57195803,9.75904244 5.70813623,9.67299278 5.83864033,9.57175791 C6.45144223,9.12126269 6.80323591,8.44805073 6.80323591,7.73940658 L6.80323591,1.36160914 L6.80323591,0.460618703 L6.80323591,0.323951617 C6.80323591,0.172099296 6.57059816,0.0455556959 6.27554538,0.0455556959 L6.27554538,0.0455556959 L6.27554538,0.0455556959 Z" id="Shape" opacity="0.05" fill="#000000"></path>
                        </g>
                    </g>
                </g>
                <g id="marker-forme" transform="translate(2304.589243, 471.001713)">
                    <path d="M7.10542736e-15,33.4021561 C7.10542736e-15,40.6079895 2.42233717,47.2509553 6.51325998,52.6060332 L32.6391279,86.7941285 L58.7648164,52.6060332 C62.856098,47.2509553 65.2780763,40.6081657 65.2780763,33.4021561 C65.2780763,15.711173 50.6635119,1.36693743 32.6389484,1.36693743 C14.6145643,1.36693743 7.10542736e-15,15.711173 7.10542736e-15,33.4021561 L7.10542736e-15,33.4021561 Z" id="White-Shadow" fill="#FFFFFF"></path>
                    <path d="M32.4454987,3.40749862 C15.6557584,3.40749862 2.04227027,16.7510206 2.04227027,33.2078072 C2.04227027,39.9109316 4.29868091,46.0904566 8.10938149,51.0719421 L32.4456657,82.8749334 L56.7817829,51.0719421 C60.5928177,46.0904566 62.8488942,39.9110955 62.8488942,33.2078072 C62.8488942,16.7510206 49.235406,3.40749862 32.4454987,3.40749862 L32.4454987,3.40749862 L32.4454987,3.40749862 Z" id="Main-Shape" fill="#C386BE"></path>
                    <g id="Icon-Santé-Copy" transform="translate(17.981130, 21.868333)">
                        <g id="Group">
                            <path d="M28.7442532,11.0866366 C28.7011675,11.3906251 28.5411351,12.159537 28.239536,12.9344094 C25.6790202,19.3539297 15.3569403,25.9939906 14.4644528,26.4291112 C13.5719653,25.9999511 3.24988558,19.3598902 0.695524753,12.9344094 C0.40008061,12.2072214 0.23389328,11.3906251 0.190807675,11.0866366 C-1.08329519,2.02062893 6.77675003,-4.26775906 14.4706079,3.64786108 C22.1521557,-4.26775906 30.0183559,2.02062893 28.7442532,11.0866366 L28.7442532,11.0866366 L28.7442532,11.0866366 Z" id="Shape" fill="#FFFFFF"></path>
                            <path d="M0.381615351,11.9986019 L8.55556997,11.9986019 L10.4759569,6.49104694 C10.5436628,6.30626966 10.7098502,6.18109796 10.9068129,6.18109796 L10.9068129,6.18109796 C11.0976206,6.18109796 11.269963,6.30626966 11.337669,6.49104694 L15.3877158,17.7863031 L18.1759699,4.32140408 C18.2190555,4.10682401 18.4098631,3.95184951 18.6252912,3.95184951 L18.6252912,3.95184951 C18.8407192,3.95184951 19.0253718,4.10682401 19.0746125,4.32140408 L20.68109,11.9986019 L28.5534454,11.9986019 C28.6334616,11.6946135 28.7073226,11.3965856 28.7442532,11.0866366 C30.0183559,2.02062893 22.1583107,-4.26775906 14.4644528,3.64786108 C6.77675003,-4.26775906 -1.08945028,2.02062893 0.184652589,11.0866366 C0.227738193,11.3906251 0.30159923,11.6946135 0.381615351,11.9986019 L0.381615351,11.9986019 L0.381615351,11.9986019 Z" id="Shape" fill="#F35B5A"></path>
                            <path d="M20.3056297,12.9344094 C20.0902016,12.9344094 19.9055491,12.7794349 19.8563084,12.5648549 L18.6252912,6.66986366 L15.9539837,19.5685097 C15.9108981,19.7711686 15.7447108,19.9261432 15.5415929,19.9380643 L15.5108175,19.9380643 C15.3200098,19.9380643 15.1476674,19.8188531 15.0799614,19.634076 L10.912968,8.02291019 L9.31264558,12.6244604 C9.24493963,12.8092377 9.07259721,12.9344094 8.88178955,12.9344094 L0.695524753,12.9344094 C3.24988558,19.3539297 13.5719653,25.9939906 14.4644528,26.4291112 C15.3569403,25.9999511 25.6790202,19.3598902 28.2333808,12.9344094 L20.3056297,12.9344094 L20.3056297,12.9344094 Z" id="Shape" fill="#F35B5A"></path>
                        </g>
                        <path d="M25.0081156,1.02521586 C22.2383269,-0.721227439 18.329847,-0.333791211 14.4644528,3.64786108 L14.4644528,26.4291112 C14.6860359,26.3218211 15.4923522,25.8270949 16.618733,25.0522225 C20.0163407,22.703763 26.3129939,17.7624609 28.2333808,12.94037 L28.2333808,12.94037 C28.3564826,12.6125393 28.4611191,12.2906692 28.5411351,12.0045625 L28.5472904,12.0045625 C28.6149963,11.7482585 28.676547,11.4919545 28.7196326,11.22969 C28.7257879,11.1820056 28.7319429,11.1462422 28.7380979,11.1104789 L28.7380979,11.0925972 C29.3782269,6.58045531 27.747129,2.75973805 25.0081156,1.02521586 L25.0081156,1.02521586 L25.0081156,1.02521586 Z" id="Shape" opacity="0.05" fill="#000000"></path>
                    </g>
                </g>
                <g id="marker-loisir" transform="translate(2540.222897, 484.702781)">
                    <path d="M7.10542736e-15,33.4021561 C7.10542736e-15,40.6079895 2.42233717,47.2509553 6.51325998,52.6060332 L32.6391279,86.7941285 L58.7648164,52.6060332 C62.856098,47.2509553 65.2780763,40.6081657 65.2780763,33.4021561 C65.2780763,15.711173 50.6635119,1.36693743 32.6389484,1.36693743 C14.6145643,1.36693743 7.10542736e-15,15.711173 7.10542736e-15,33.4021561 L7.10542736e-15,33.4021561 Z" id="White-Shadow" fill="#FFFFFF"></path>
                    <path d="M32.4454987,3.40749862 C15.6557584,3.40749862 2.04227027,16.7510206 2.04227027,33.2078072 C2.04227027,39.9109316 4.29868091,46.0904566 8.10938149,51.0719421 L32.4456657,82.8749334 L56.7817829,51.0719421 C60.5928177,46.0904566 62.8488942,39.9110955 62.8488942,33.2078072 C62.8488942,16.7510206 49.235406,3.40749862 32.4454987,3.40749862 L32.4454987,3.40749862 L32.4454987,3.40749862 Z" id="Main-Shape" fill="#1DA1DF"></path>
                    <g id="Icon-Loisirs" transform="translate(15.997976, 21.868333)">
                        <g id="Group" transform="translate(14.509336, 0.000000)">
                            <g id="Shape">
                                <path d="M9.204014,1.36910699 C6.57350458,1.36910699 4.12574635,0.897956809 2.06564213,0.0776012058 C1.55615399,-0.121944752 0.980210876,0.138573582 0.797459696,0.654067307 C0.315661129,2.01208841 0.0498412311,3.51422604 0.0498412311,5.09396487 C0.0498412311,11.2688037 4.14789801,19.3060714 9.204014,19.3060714 C14.26013,19.3060714 18.3581868,11.2688037 18.3581868,5.09396487 C18.3581868,3.51422604 18.0923669,2.01763135 17.6105683,0.654067307 C17.4278171,0.138573582 16.851874,-0.127487695 16.3423859,0.0776012058 C14.2822816,0.892413866 11.8345234,1.36910699 9.204014,1.36910699 L9.204014,1.36910699 L9.204014,1.36910699 Z" fill="#DA6E3D"></path>
                                <g id="Group" transform="translate(3.267370, 4.933220)" fill="#FFFFFF">
                                    <path d="M9.99039787,1.54093823 C9.02126282,1.54093823 8.20718937,0.892413866 7.95798321,0.00554294328 C7.90814198,0.188460071 7.8749145,0.382463085 7.8749145,0.587551986 C7.8749145,1.75711302 8.82189788,2.70495631 9.99039787,2.70495631 C11.1588978,2.70495631 12.1058812,1.75711302 12.1058812,0.587551986 C12.1058812,0.38800603 12.0781917,0.194003015 12.0228125,0.00554294328 C11.7736063,0.892413866 10.953995,1.54093823 9.99039787,1.54093823 L9.99039787,1.54093823 L9.99039787,1.54093823 Z" id="Shape"></path>
                                    <path d="M2.15424877,1.54093823 C1.18511372,1.54093823 0.371040276,0.892413866 0.12183412,0.00554294328 C0.0719928894,0.188460071 0.038765402,0.382463085 0.038765402,0.587551986 C0.038765402,1.75711302 0.985748792,2.70495631 2.15424877,2.70495631 C3.32274873,2.70495631 4.26973211,1.75711302 4.26973211,0.587551986 C4.26973211,0.38800603 4.24204254,0.194003015 4.1866634,0.00554294328 C3.93191934,0.892413866 3.1178459,1.54093823 2.15424877,1.54093823 L2.15424877,1.54093823 L2.15424877,1.54093823 Z" id="Shape"></path>
                                </g>
                                <path d="M9.204014,13.2808921 C11.1810495,13.2808921 12.964258,13.8961588 14.2269025,14.8883456 C13.7451039,12.5381377 11.6794618,10.7699388 9.204014,10.7699388 C6.72856618,10.7699388 4.66292405,12.5381377 4.18112549,14.8883456 C5.44377001,13.8961588 7.22697851,13.2808921 9.204014,13.2808921 L9.204014,13.2808921 L9.204014,13.2808921 Z" fill="#FFFFFF"></path>
                            </g>
                            <path d="M17.6105683,0.65961025 C17.4278171,0.144116525 16.851874,-0.121944752 16.3423859,0.083144149 C14.2822816,0.897956809 11.8345234,1.37464993 9.204014,1.37464993 L9.204014,19.3171573 C14.26013,19.3171573 18.3581868,11.2798896 18.3581868,5.10505075 C18.3581868,3.51976898 18.0923669,2.01763135 17.6105683,0.65961025 L17.6105683,0.65961025 L17.6105683,0.65961025 Z" id="Shape" opacity="0.05" fill="#000000"></path>
                        </g>
                        <g id="Group" transform="translate(0.000000, 2.716043)">
                            <g id="Shape">
                                <path d="M9.18186234,1.39127876 C6.55135292,1.39127876 4.10359469,0.920128583 2.04349047,0.0997729788 C1.53400233,-0.0997729788 0.958059218,0.160745355 0.775308038,0.676239079 C0.293509471,2.03426018 0.0276895729,3.53639781 0.0276895729,5.11613664 C0.0276895729,11.2909754 4.12574635,19.3282432 9.18186234,19.3282432 C14.2379783,19.3282432 18.3360351,11.2909754 18.3360351,5.11613664 C18.3360351,3.53639781 18.0702152,2.03980312 17.5884166,0.676239079 C17.4056655,0.160745355 16.8297223,-0.105315922 16.3202342,0.0997729788 C14.26013,0.920128583 11.8123718,1.39127876 9.18186234,1.39127876 L9.18186234,1.39127876 L9.18186234,1.39127876 Z" fill="#ABCA46"></path>
                                <g id="Group" transform="translate(3.267370, 4.933220)" fill="#FFFFFF">
                                    <path d="M2.13209711,1.1917328 C3.10123215,1.1917328 3.91530559,1.84025717 4.16451174,2.72712808 C4.21435297,2.54421096 4.24758047,2.35020796 4.24758047,2.14511904 C4.24758047,0.975558016 3.30059707,0.0277147163 2.13209711,0.0277147163 C0.963597134,0.0277147163 0.0166137437,0.975558016 0.0166137437,2.14511904 C0.0166137437,2.34466501 0.0443033165,2.53866802 0.099682462,2.72712808 C0.348888618,1.84025717 1.16849997,1.1917328 2.13209711,1.1917328 L2.13209711,1.1917328 L2.13209711,1.1917328 Z" id="Shape"></path>
                                    <path d="M9.9682462,1.1917328 C10.9373812,1.1917328 11.7514547,1.84025717 12.0006609,2.72712808 C12.0505021,2.54421096 12.0837296,2.35020796 12.0837296,2.14511904 C12.0837296,0.975558016 11.1367462,0.0277147163 9.9682462,0.0277147163 C8.79974624,0.0277147163 7.85276284,0.975558016 7.85276284,2.14511904 C7.85276284,2.34466501 7.88045241,2.53866802 7.93583155,2.72712808 C8.19057564,1.84025717 9.00464907,1.1917328 9.9682462,1.1917328 L9.9682462,1.1917328 L9.9682462,1.1917328 Z" id="Shape"></path>
                                </g>
                                <path d="M9.18186234,12.9594014 C7.20482685,12.9594014 5.42161835,12.3441347 4.15897383,11.3519478 C4.64077241,13.7021558 6.70641452,15.4703547 9.18186234,15.4703547 C11.6573102,15.4703547 13.7229523,13.7021558 14.2047508,11.3519478 C12.9421063,12.3441347 11.1588978,12.9594014 9.18186234,12.9594014 L9.18186234,12.9594014 L9.18186234,12.9594014 Z" fill="#FFFFFF"></path>
                            </g>
                            <path d="M17.5884166,0.681782022 C17.4056655,0.166288298 16.8297223,-0.0997729788 16.3202342,0.105315922 C14.26013,0.920128583 11.8123718,1.3968217 9.18186234,1.3968217 L9.18186234,19.3393291 C14.2379783,19.3393291 18.3360351,11.3020613 18.3360351,5.12722253 C18.341573,3.54194075 18.0702152,2.04534607 17.5884166,0.681782022 L17.5884166,0.681782022 L17.5884166,0.681782022 Z" id="Shape" opacity="0.05" fill="#000000"></path>
                        </g>
                    </g>
                </g>
                <g id="marker-coffee" transform="translate(565.000000, 475.918149)">
                    <g id="Page-1">
                        <g id="Marker-Coffee">
                            <path d="M7.10542736e-15,33.4021561 C7.10542736e-15,40.6079895 2.42233717,47.2509553 6.51325998,52.6060332 L32.6391279,86.7941285 L58.7648164,52.6060332 C62.856098,47.2509553 65.2780763,40.6081657 65.2780763,33.4021561 C65.2780763,15.711173 50.6635119,1.36693743 32.6389484,1.36693743 C14.6145643,1.36693743 7.10542736e-15,15.711173 7.10542736e-15,33.4021561 L7.10542736e-15,33.4021561 Z" id="White-Shadow" fill="#FFFFFF"></path>
                            <path d="M32.4454987,3.40749862 C15.6557584,3.40749862 2.04227027,16.7510206 2.04227027,33.2078072 C2.04227027,39.9109316 4.29868091,46.0904566 8.10938149,51.0719421 L32.4456657,82.8749334 L56.7817829,51.0719421 C60.5928177,46.0904566 62.8488942,39.9110955 62.8488942,33.2078072 C62.8488942,16.7510206 49.235406,3.40749862 32.4454987,3.40749862 L32.4454987,3.40749862 L32.4454987,3.40749862 Z" id="Main-Shape" fill="#7F5B0A"></path>
                            <g id="Icon-coffee" transform="translate(15.952199, 12.808057)">
                                <g id="Group" transform="translate(0.000000, 13.414477)">
                                    <g id="Shape">
                                        <path d="M29.690256,12.6313986 C28.5018069,12.6313986 27.292385,12.3862609 26.1179178,11.8823669 C25.5586475,11.6440386 25.299985,11.0107663 25.5446658,10.466016 C25.7893464,9.92126562 26.439498,9.66931859 26.9987683,9.90764686 C29.3407122,10.9018162 31.8644189,10.5545379 33.7589467,8.96795252 C35.1221676,7.82397679 35.8492189,6.22377266 35.5346294,5.07979695 C34.9893409,3.12550508 32.1580357,3.0914582 29.8790097,3.41149901 C29.7042378,3.43873654 29.6203473,3.44554591 29.5154841,3.44554591 C28.9072777,3.44554591 28.4109254,2.96207998 28.4109254,2.369664 C28.4109254,1.79767613 28.8653325,1.32782896 29.4455754,1.29378206 C29.4735389,1.28697268 29.5154841,1.28697268 29.5644202,1.28016331 C35.5975474,0.442609654 37.2334126,2.95527061 37.666847,4.52142785 C38.2191263,6.49614785 37.2473945,8.88623996 35.1990673,10.6022036 C33.6121381,11.9368419 31.6826561,12.6313986 29.690256,12.6313986 L29.690256,12.6313986 L29.690256,12.6313986 Z M29.6225678,1.28697268 L29.466548,1.28697268 L29.6448564,1.28697268 L29.6225678,1.28697268 L29.6225678,1.28697268 Z" fill="#FFFFFF"></path>
                                        <path d="M0.0629178959,1.32782896 C0.650151592,12.4815922 8.5428521,17.8882394 8.5428521,17.8882394 L15.7784101,17.8882394 L23.0139682,17.8882394 C23.0139682,17.8882394 30.9136595,12.4747828 31.4939024,1.32782896 C31.5288569,0.612844135 30.941623,0.0136187586 30.2075809,0.0136187586 L1.34923932,0.0136187586 C0.615197205,0.00680937928 0.0279635094,0.612844135 0.0629178959,1.32782896 L0.0629178959,1.32782896 L0.0629178959,1.32782896 Z" fill="#FFFFFF"></path>
                                        <path d="M26.439498,19.7608187 L5.12431308,19.7608187 C3.44650253,19.7608187 1.85258249,19.066262 0.734042119,17.8473831 L0.734042119,17.8473831 C0.461397905,17.5545798 0.678115101,17.0847326 1.08358599,17.0847326 L30.4872161,17.0847326 C30.8926869,17.0847326 31.1094042,17.5545798 30.8367599,17.8473831 L30.8367599,17.8473831 C29.7182195,19.066262 28.1173087,19.7608187 26.439498,19.7608187 L26.439498,19.7608187 L26.439498,19.7608187 Z" fill="#EDA914"></path>
                                    </g>
                                    <path d="M37.6738379,4.51461847 C37.2893397,3.12550508 35.9680639,1.00778813 31.4939024,1.10992882 C31.4170028,0.490275308 30.8787053,0.00680937928 30.2145718,0.00680937928 L16.1139722,0.00680937928 L16.1139722,19.7608187 L26.439498,19.7608187 C28.1173087,19.7608187 29.7112286,19.066262 30.8297689,17.8473831 C31.1024133,17.5545798 30.885696,17.0847326 30.4802252,17.0847326 L24.0136637,17.0847326 C24.9853955,16.2335602 26.5233886,14.6946405 27.9565185,12.4543547 C28.5367613,12.5701142 29.1100133,12.6245892 29.683265,12.6245892 C31.6756652,12.6245892 33.6051474,11.9368419 35.1990673,10.5953942 C37.2543852,8.87943059 38.2261172,6.48933845 37.6738379,4.51461847 L37.6738379,4.51461847 L37.6738379,4.51461847 Z M33.7659374,8.96795252 C32.4376709,10.0846907 30.7878238,10.5885848 29.1100133,10.4455878 C30.1097086,8.45724906 30.941623,6.07396632 31.3191305,3.27531144 C33.220649,3.18678951 35.108186,3.52725847 35.5416203,5.07979695 C35.8562098,6.22377266 35.1291586,7.82397679 33.7659374,8.96795252 L33.7659374,8.96795252 L33.7659374,8.96795252 Z" id="Shape" opacity="0.05" fill="#000000"></path>
                                </g>
                                <g id="Group" transform="translate(10.346498, 0.000000)" fill="#FFFFFF">
                                    <path d="M2.51671584,12.3590234 C2.20911723,12.0526013 1.9434639,11.759798 1.69878319,11.4738041 C1.37021196,11.0856695 1.11154949,10.7452005 0.887841422,10.4047316 C0.60121545,9.96893127 0.39148913,9.56036852 0.244680706,9.15180576 C0.0629178959,8.64791169 -0.00699087734,8.18487389 0.0349543867,7.74226425 C0.0559270186,7.48350783 0.118844915,7.23837018 0.209726319,7.01366066 C0.258662461,6.89109185 0.321580357,6.76852301 0.384498252,6.65276356 C0.405470886,6.61190728 0.433434394,6.57105101 0.461397905,6.53019472 L0.49635229,6.47571969 C0.531306677,6.42805405 0.559270186,6.38038839 0.594224573,6.32591335 C0.629178959,6.27824769 0.706078611,6.16248825 0.706078611,6.16248825 C0.706078611,6.16248825 0.768996507,6.06715695 0.796960015,6.01949128 C0.824923526,5.97863501 0.887841422,5.88330371 0.887841422,5.88330371 L0.978722826,5.73349735 C1.10455862,5.52240661 1.20942178,5.31131585 1.30030318,5.12746261 C1.48905687,4.72570922 1.6358653,4.31714647 1.73373758,3.91539308 C1.7896646,3.71792108 1.81762811,3.53406785 1.84559161,3.35021461 L1.84559161,3.32978647 C1.85957337,3.26169268 1.86656425,3.20040827 1.87355512,3.13912385 C1.87355512,3.11188634 1.880546,3.08464881 1.88753688,3.05060191 L1.88753688,3.03698317 L1.90850951,2.77141737 C1.92249127,2.47180468 1.92249127,2.16538261 1.89452776,1.85896054 C1.90151863,1.86576992 1.90850951,1.8725793 1.90850951,1.88619806 C2.08328145,2.14495447 2.22309899,2.43094841 2.32796216,2.7305611 C2.34893479,2.78503614 2.36291653,2.83951117 2.37689829,2.90079557 C2.38388916,2.9280331 2.39088006,2.94846124 2.39787093,2.97569874 C2.4048618,3.00293627 2.41185267,3.03698317 2.41884356,3.06422068 C2.4328253,3.12550508 2.44680706,3.17998014 2.45379794,3.23445517 C2.4677797,3.31616771 2.48176146,3.41149901 2.48875233,3.50683034 L2.50273409,3.66344605 L2.50273409,3.81325241 C2.4957432,4.24905268 2.42583443,4.67123418 2.29300776,5.06617818 C2.20911723,5.31131585 2.11823582,5.52921598 2.02036355,5.73349735 C1.99240004,5.79478178 1.96443653,5.84925681 1.92948214,5.91054122 C1.90151863,5.96501625 1.86656425,6.02630068 1.83160986,6.08077571 C1.79665547,6.13525074 1.76170109,6.19653515 1.7267467,6.25781956 C1.69179231,6.30548522 1.6638288,6.35996025 1.62887442,6.40762591 C1.59392003,6.46210095 1.51702038,6.58466976 1.51702038,6.58466976 L1.5100295,6.59147915 C1.50303863,6.60509791 1.49604775,6.61190728 1.48905687,6.62552605 C1.46808424,6.65957295 1.44711161,6.69361985 1.42613898,6.73447612 C1.38419371,6.81618866 1.32826669,6.91832935 1.27933055,7.03408879 C1.19544002,7.24517956 1.13252213,7.46307969 1.10455862,7.67417045 C1.04164072,8.06911445 1.06261335,8.51853349 1.16048564,8.98838066 C1.23738529,9.36289652 1.36322108,9.77145927 1.54498389,10.2344971 C1.68480144,10.5885848 1.85258249,10.9631007 2.05531794,11.3784728 C2.23008986,11.7461793 2.41185267,12.100267 2.56565197,12.3930703 C2.57264286,12.3998797 2.57264286,12.4134984 2.57963374,12.4203078 C2.56565197,12.4066891 2.53768847,12.3862609 2.51671584,12.3590234 L2.51671584,12.3590234 L2.51671584,12.3590234 Z" id="Shape"></path>
                                    <path d="M9.01823176,12.6518267 C8.84345982,12.3249765 8.68266964,11.9981263 8.5428521,11.6712761 C8.36808017,11.2627133 8.22826262,10.8881975 8.13039033,10.5341098 C7.99756366,10.0846907 7.92066401,9.66931859 7.89270051,9.27437459 C7.85774611,8.79090866 7.89969138,8.36872715 8.01154542,7.97378315 C8.08145419,7.74226425 8.16534472,7.53798286 8.27719876,7.35412962 C8.29817139,7.31327335 8.3261349,7.27241708 8.34710753,7.23837018 L8.37507104,7.19751391 C8.39604367,7.16346701 8.42400717,7.12261072 8.4519707,7.08856383 L8.47294333,7.06132632 C8.50789771,7.01366066 8.54984297,6.96599501 8.58479737,6.91832935 L8.68966052,6.79576052 L8.80151455,6.65957295 L8.89938685,6.53700412 L8.99725912,6.42124466 L9.0951314,6.29186645 C9.1580493,6.21696328 9.2209672,6.12844135 9.2838851,6.03991942 C9.33981211,5.96501625 9.38874825,5.89692245 9.43069351,5.82882868 L9.45865704,5.78797239 C9.71731949,5.40664715 9.92005493,5.07298757 10.0738542,4.76656551 C10.2346444,4.45333405 10.3814528,4.11967447 10.5002978,3.79282427 C10.5911792,3.55449598 10.6610879,3.31616771 10.7309967,3.07103005 C10.7939146,3.31616771 10.828869,3.56811474 10.8358599,3.82687115 L10.8358599,3.83368054 L10.8358599,4.05839005 L10.8358599,4.06519944 C10.8358599,4.14010261 10.828869,4.22181515 10.8218781,4.31033708 C10.8078964,4.48057157 10.772942,4.65080605 10.7379876,4.83465928 C10.6540971,5.20236578 10.5142795,5.57007225 10.3325167,5.93096935 L10.2975623,5.99225378 C10.255617,6.06715695 10.2206626,6.13525074 10.1857083,6.20334452 L10.1647356,6.23739142 C10.1157995,6.32591335 10.0668634,6.40762591 10.0109363,6.48252908 C9.97598196,6.53700412 9.94102756,6.58466976 9.91306406,6.63233542 L9.80820089,6.77533239 C9.77324652,6.82299805 9.73829212,6.87066369 9.70333772,6.91832935 C9.66838335,6.95918562 9.63342895,7.00685128 9.59847458,7.04770756 C9.53555668,7.12942012 9.46564791,7.21113266 9.40273001,7.29965459 L9.39573914,7.31327335 L9.38874825,7.32689212 C9.33981211,7.40179528 9.27689421,7.48350783 9.22795807,7.57883915 C9.12309492,7.76950176 9.03221352,7.95335499 8.96929562,8.14401762 C8.67567877,8.96795252 8.70364228,9.90764686 8.75257842,10.5477285 C8.78054192,10.915435 8.82248719,11.2967602 8.87841422,11.6917042 C8.91336859,11.9776982 8.96230473,12.3045484 9.01823176,12.6518267 C9.01823176,12.6586361 9.01823176,12.6518267 9.01823176,12.6518267 L9.01823176,12.6518267 L9.01823176,12.6518267 Z" id="Shape"></path>
                                    <path d="M6.02613627,12.2568827 C5.96321837,12.1683608 5.90729134,12.0730295 5.84437344,11.9776982 C5.60668362,11.6031823 5.38297555,11.2286664 5.1802401,10.8541506 C4.9355594,10.3979222 4.73282395,9.96893127 4.56504289,9.53994039 C4.36230745,9.00880879 4.22948077,8.52534286 4.159572,8.06230508 C4.07568149,7.49031722 4.09665412,6.97961376 4.21549903,6.49614785 L4.27142604,6.27824769 C4.27841693,6.25781956 4.29239867,6.21696328 4.31337131,6.17610701 C4.3203622,6.14886949 4.33434394,6.12844135 4.34133481,6.10120385 C4.36929834,6.03991942 4.39027097,5.97182562 4.41823447,5.91054122 C4.45318885,5.84925681 4.48814325,5.78116301 4.52309764,5.71987859 C4.53707938,5.69945045 4.55106115,5.67221295 4.56504289,5.65178481 C4.58601552,5.61092852 4.60698815,5.57688164 4.62796079,5.54283474 C4.67689693,5.47474095 4.71884219,5.41345652 4.76777833,5.34536274 L4.83768712,5.24322205 L4.8726415,5.19555639 C4.8726415,5.19555639 4.97051379,5.07298757 5.01245904,5.01851254 C5.0893587,4.92999061 5.13829484,4.85508742 5.18723098,4.79380301 C5.20820361,4.76656551 5.22917624,4.73932798 5.25014888,4.70528108 L5.31306677,4.62356854 L5.37598467,4.53504661 C5.41093905,4.48738095 5.44589345,4.43971528 5.48084782,4.38524025 C5.52978396,4.31714647 5.57172923,4.25586205 5.61367449,4.18776825 C5.641638,4.14691198 5.66261063,4.11286508 5.69057415,4.07200881 L5.69756503,4.05839005 L5.7045559,4.0447713 C5.7674738,3.94263061 5.82340083,3.84048991 5.88631871,3.74515861 L5.8933096,3.73153985 C6.12400854,3.32297708 6.32674398,2.88717681 6.48753416,2.44456717 C6.63434259,2.03600441 6.74619663,1.62063227 6.8161054,1.21206951 C6.8790233,0.871600549 6.92096855,0.510703445 6.93495031,0.136187586 L6.93495031,0.0680937928 C6.96291381,0.122568827 6.99786821,0.183853241 7.02583171,0.238328274 C7.17264015,0.551559722 7.28449418,0.885219306 7.35440296,1.23249765 C7.39634822,1.42316027 7.41032996,1.62744165 7.42431173,1.81810427 C7.4313026,2.02238564 7.42431173,2.23347641 7.40333909,2.44456717 C7.35440296,2.88717681 7.23555803,3.34340524 7.04680435,3.79963364 L7.03981348,3.82006178 C6.99087734,3.93582122 6.94194118,4.0447713 6.88601417,4.15372137 C6.85805067,4.20138701 6.83707803,4.24905268 6.80911451,4.29671832 C6.76716926,4.37162151 6.73221487,4.44652468 6.6902696,4.50780908 C6.65531523,4.56228412 6.52248856,4.78018425 6.52248856,4.78018425 L6.45957066,4.86870618 L6.39665276,4.96403751 C6.33373486,5.05255942 6.26382608,5.14789074 6.21488995,5.21598454 C6.21488995,5.21598454 6.12400854,5.33174398 6.08206328,5.39302839 L6.03312714,5.45431281 L5.95622748,5.56326288 C5.92826397,5.60411915 5.8583552,5.69945045 5.8583552,5.69945045 C5.82340083,5.74711612 5.80242819,5.78797239 5.78145556,5.82882868 C5.77446467,5.84244742 5.7674738,5.85606618 5.76048293,5.86968495 L5.66261063,6.03991942 L5.58571099,6.21696328 C5.57872012,6.23058205 5.57172923,6.24420081 5.57172923,6.25781956 C5.55075659,6.29867585 5.52978396,6.34634149 5.51580222,6.40081652 L5.46686608,6.55743225 C5.33403941,6.98642315 5.26413064,7.47669845 5.26413064,8.00783003 C5.26413064,8.43682093 5.30607588,8.9066681 5.39695731,9.43779969 C5.47385695,9.91445623 5.57872012,10.3843034 5.66960152,10.7792474 C5.76048293,11.1537633 5.8583552,11.5487073 5.97720011,11.9845075 C5.984191,12.0866482 6.00516363,12.1751702 6.02613627,12.2568827 L6.02613627,12.2568827 L6.02613627,12.2568827 Z" id="Shape"></path>
                                </g>
                            </g>
                        </g>
                    </g>
                </g>
                <g id="marker-maison" transform="translate(1279.888544, 243.000000)">
                    <g id="Page-1">
                        <g id="Marker-Maison-&amp;-Jardin" transform="translate(0.293372, 0.955450)">
                            <path d="M7.10542736e-15,33.4021561 C7.10542736e-15,40.6079895 2.42233717,47.2509553 6.51325998,52.6060332 L32.6391279,86.7941285 L58.7648164,52.6060332 C62.856098,47.2509553 65.2780763,40.6081657 65.2780763,33.4021561 C65.2780763,15.711173 50.6635119,1.36693743 32.6389484,1.36693743 C14.6145643,1.36693743 7.10542736e-15,15.711173 7.10542736e-15,33.4021561 L7.10542736e-15,33.4021561 Z" id="White-Shadow" fill="#FFFFFF"></path>
                            <path d="M32.4454987,3.40749862 C15.6557584,3.40749862 2.04227027,16.7510206 2.04227027,33.2078072 C2.04227027,39.9109316 4.29868091,46.0904566 8.10938149,51.0719421 L32.4456657,82.8749334 L56.7817829,51.0719421 C60.5928177,46.0904566 62.8488942,39.9110955 62.8488942,33.2078072 C62.8488942,16.7510206 49.235406,3.40749862 32.4454987,3.40749862 L32.4454987,3.40749862 L32.4454987,3.40749862 Z" id="Main-Shape" fill="#ADCB40"></path>
                            <g id="Icon-Maison" transform="translate(14.150530, 16.064968)">
                                <g id="Group">
                                    <path d="M10.5301789,19.7146862 C10.5301789,17.3691694 8.81454549,15.4680663 6.70117011,15.4680663 C4.74214237,15.4680663 3.12742858,17.1037557 2.90184357,19.2147208 C1.31681204,19.7332036 0.165141182,21.3627205 0.165141182,23.2885132 C0.165141182,25.6340301 1.88077457,30.3065465 3.99414995,30.3065465 C5.9531777,30.3065465 7.56789148,25.8994438 7.7934765,23.7884786 C9.37850803,23.2638237 10.5301789,21.6404791 10.5301789,19.7146862 L10.5301789,19.7146862 L10.5301789,19.7146862 Z" id="Shape" fill="#ABCA46"></path>
                                    <path d="M33.682325,19.2085484 C33.4567399,17.0975833 31.8420262,15.4618939 29.8829985,15.4618939 C27.769623,15.4618939 26.0539896,17.362997 26.0539896,19.7085139 C26.0539896,21.6343066 27.211597,23.2638237 28.790692,23.7823063 C29.016277,25.8932715 30.6309908,30.3003741 32.5900186,30.3003741 C34.7033939,30.3003741 36.4190274,25.6278577 36.4190274,23.2823409 C36.4249637,21.3565481 35.2673565,19.7332036 33.682325,19.2085484 L33.682325,19.2085484 L33.682325,19.2085484 Z" id="Shape" fill="#ABCA46"></path>
                                    <path d="M29.7167779,30.3003741 L6.8733271,30.3003741 L6.8733271,12.8571357 L18.2950525,3.30224081 L29.7167779,12.8571357 L29.7167779,30.3003741 L29.7167779,30.3003741 Z" id="Shape" fill="#FFFFFF"></path>
                                    <g transform="translate(3.988213, 0.000000)">
                                        <path d="M28.2278089,11.2214464 L14.930166,0.228379272 C14.5621062,-0.0740689529 14.0456353,-0.0740689529 13.6775755,0.228379272 L0.379932653,11.2214464 C-0.0534280294,11.5794463 -0.124665402,12.2398945 0.219648565,12.6904806 L0.831102679,13.4867218 C1.17541665,13.937308 1.81061655,14.0113769 2.24397723,13.653377 L13.6775755,4.20341307 C14.0456353,3.90096484 14.5621062,3.90096484 14.930166,4.20341307 L26.3637644,13.653377 C26.797125,14.0113769 27.4323248,13.937308 27.7766389,13.4867218 L28.3880929,12.6904806 C28.732407,12.2398945 28.6611695,11.5794463 28.2278089,11.2214464 L28.2278089,11.2214464 L28.2278089,11.2214464 Z" id="Shape" fill="#F35B5A"></path>
                                        <rect id="Rectangle-path" fill="#F35B5A" x="19.5605952" y="1.46286182" width="3.21755466" height="5.48110251"></rect>
                                        <g id="Shape" transform="translate(5.817719, 13.887929)" fill="#1FA1DD">
                                            <path d="M12.3478112,3.36396494 L9.55768082,3.36396494 C9.4448883,3.36396494 9.34990514,3.26520633 9.34990514,3.1479305 L9.34990514,0.246896509 C9.34990514,0.129620668 9.4448883,0.0308620637 9.55768082,0.0308620637 L12.3478112,0.0308620637 C12.4606038,0.0308620637 12.5555869,0.129620668 12.5555869,0.246896509 L12.5555869,3.1479305 C12.5615233,3.27137874 12.4665402,3.36396494 12.3478112,3.36396494 L12.3478112,3.36396494 L12.3478112,3.36396494 Z"></path>
                                            <path d="M16.746719,3.36396494 L13.9565886,3.36396494 C13.8437961,3.36396494 13.7488129,3.26520633 13.7488129,3.1479305 L13.7488129,0.246896509 C13.7488129,0.129620668 13.8437961,0.0308620637 13.9565886,0.0308620637 L16.746719,0.0308620637 C16.8595115,0.0308620637 16.9544947,0.129620668 16.9544947,0.246896509 L16.9544947,3.1479305 C16.9544947,3.27137874 16.8595115,3.36396494 16.746719,3.36396494 L16.746719,3.36396494 L16.746719,3.36396494 Z"></path>
                                            <path d="M12.3478112,7.93772278 L9.55768082,7.93772278 C9.4448883,7.93772278 9.34990514,7.83896417 9.34990514,7.72168834 L9.34990514,4.82065435 C9.34990514,4.70337851 9.4448883,4.60461991 9.55768082,4.60461991 L12.3478112,4.60461991 C12.4606038,4.60461991 12.5555869,4.70337851 12.5555869,4.82065435 L12.5555869,7.72168834 C12.5615233,7.83896417 12.4665402,7.93772278 12.3478112,7.93772278 L12.3478112,7.93772278 L12.3478112,7.93772278 Z"></path>
                                            <path d="M16.746719,7.93772278 L13.9565886,7.93772278 C13.8437961,7.93772278 13.7488129,7.83896417 13.7488129,7.72168834 L13.7488129,4.82065435 C13.7488129,4.70337851 13.8437961,4.60461991 13.9565886,4.60461991 L16.746719,4.60461991 C16.8595115,4.60461991 16.9544947,4.70337851 16.9544947,4.82065435 L16.9544947,7.72168834 C16.9544947,7.83896417 16.8595115,7.93772278 16.746719,7.93772278 L16.746719,7.93772278 L16.746719,7.93772278 Z"></path>
                                            <path d="M0.308695281,0 L7.37900451,0 C7.53928859,0 7.66395399,0.13579308 7.66395399,0.29627581 L7.66395399,15.5051008 C7.66395399,15.6717559 7.53335214,15.8013766 7.37900451,15.8013766 L0.308695281,15.8013766 C0.148411193,15.8013766 0.0237457908,15.6655835 0.0237457908,15.5051008 L0.0237457908,0.29627581 C0.0237457908,0.129620668 0.15434764,0 0.308695281,0 L0.308695281,0 L0.308695281,0 Z"></path>
                                        </g>
                                        <ellipse id="Oval" fill="#FFFFFF" cx="12.0331795" cy="21.4799963" rx="0.759865307" ry="0.790068831"></ellipse>
                                    </g>
                                    <g id="Shape" transform="translate(1.829506, 20.924480)" fill="#DA6E3D">
                                        <g id="Group">
                                            <path d="M2.57425959,0.00617241274 L2.57425959,0.00617241274 C3.61313794,0.00617241274 4.45017707,0.876482609 4.45017707,1.95665484 L4.45017707,9.37589494 L0.698342121,9.37589494 L0.698342121,1.95665484 C0.698342121,0.876482609 1.53538125,0.00617241274 2.57425959,0.00617241274 L2.57425959,0.00617241274 L2.57425959,0.00617241274 Z" id="Shape"></path>
                                        </g>
                                        <g id="Group" transform="translate(28.457171, 0.000000)">
                                            <path d="M1.89966327,0.00617241274 L1.89966327,0.00617241274 C2.93854161,0.00617241274 3.77558075,0.876482609 3.77558075,1.95665484 L3.77558075,9.37589494 L0.0237457908,9.37589494 L0.0237457908,1.95665484 C0.0237457908,0.876482609 0.866721365,0.00617241274 1.89966327,0.00617241274 L1.89966327,0.00617241274 L1.89966327,0.00617241274 Z" id="Shape"></path>
                                        </g>
                                    </g>
                                </g>
                                <path d="M29.7167779,15.4680663 L29.7167779,13.1287219 L30.3519778,13.653377 C30.7853384,14.0113769 31.4205385,13.937308 31.7648523,13.4867218 L32.3763065,12.6904806 C32.7206204,12.2398945 32.6493831,11.5794463 32.2160223,11.2214464 L26.7663634,6.71558506 L26.7663634,1.46286182 L23.5488086,1.46286182 L23.5488086,4.05527517 L18.9243159,0.228379272 C18.7402861,0.0740689529 18.5206375,1.77635684e-14 18.3009889,1.77635684e-14 L18.3009889,30.3003741 L29.7227143,30.3003741 L29.7227143,27.1092367 C29.9008078,27.5351333 29.7702059,15.4618939 29.7167779,15.4680663 L29.7167779,15.4680663 Z" id="Shape" opacity="0.05" fill="#000000"></path>
                            </g>
                        </g>
                    </g>
                </g>
                <g id="marker-shopping" transform="translate(1042.257994, 475.918149)">
                    <g id="Page-1">
                        <g id="Marker-Shopping">
                            <path d="M7.10542736e-15,33.4021561 C7.10542736e-15,40.6079895 2.42233717,47.2509553 6.51325998,52.6060332 L32.6391279,86.7941285 L58.7648164,52.6060332 C62.856098,47.2509553 65.2780763,40.6081657 65.2780763,33.4021561 C65.2780763,15.711173 50.6635119,1.36693743 32.6389484,1.36693743 C14.6145643,1.36693743 7.10542736e-15,15.711173 7.10542736e-15,33.4021561 L7.10542736e-15,33.4021561 Z" id="White-Shadow" fill="#FFFFFF"></path>
                            <path d="M32.4454987,3.40749862 C15.6557584,3.40749862 2.04227027,16.7510206 2.04227027,33.2078072 C2.04227027,39.9109316 4.29868091,46.0904566 8.10938149,51.0719421 L32.4456657,82.8749334 L56.7817829,51.0719421 C60.5928177,46.0904566 62.8488942,39.9110955 62.8488942,33.2078072 C62.8488942,16.7510206 49.235406,3.40749862 32.4454987,3.40749862 L32.4454987,3.40749862 L32.4454987,3.40749862 Z" id="Main-Shape" fill="#F55B5B"></path>
                            <g id="Icon-Shopping" transform="translate(19.943875, 20.590931)">
                                <g id="Group">
                                    <path d="M24.4969372,0.0422232475 L0.506479463,0.0422232475 C0.250034165,0.0422232475 0.0384667947,0.211586946 0.0384667947,0.416876276 L0.0384667947,24.1329262 C0.0384667947,24.3382156 0.250034165,24.5075792 0.506479463,24.5075792 L24.4905259,24.5075792 C24.7469712,24.5075792 24.9585387,24.3382156 24.9585387,24.1329262 L24.9585387,0.411744042 C24.9585387,0.206454712 24.7533825,0.0422232475 24.4969372,0.0422232475 L24.4969372,0.0422232475 L24.4969372,0.0422232475 Z" id="Shape" fill="#EDA914"></path>
                                    <g id="Oval" transform="translate(4.167237, 1.688931)" fill="#7E5B0D">
                                        <ellipse cx="1.26299309" cy="1.15209147" rx="1.21170403" ry="1.14002768"></ellipse>
                                        <ellipse cx="15.4059513" cy="1.15209147" rx="1.21170403" ry="1.14002768"></ellipse>
                                    </g>
                                    <path d="M12.5017083,10.9780444 C8.35370559,10.9780444 4.98144991,7.28049425 4.98144991,2.7384792 C4.98144991,2.50926727 5.18019501,2.31624673 5.43022918,2.31624673 C5.68026334,2.31624673 5.87900845,2.5032354 5.87900845,2.7384792 C5.87259732,6.81603851 8.84736279,10.1335794 12.5017083,10.1335794 C16.1560538,10.1335794 19.1308192,6.81603851 19.1308192,2.73244731 C19.1308192,2.5032354 19.3295643,2.31021483 19.5795985,2.31021483 C19.8296327,2.31021483 20.0283778,2.4972035 20.0283778,2.73244731 C20.0219667,7.28049425 16.649711,10.9780444 12.5017083,10.9780444 L12.5017083,10.9780444 L12.5017083,10.9780444 Z" id="Shape" fill="#FFFFFF"></path>
                                </g>
                                <path d="M24.4969372,0.0422232475 L12.3029632,0.0422232475 L12.3029632,24.5075792 L24.4905259,24.5075792 C24.7469712,24.5075792 24.9585387,24.33818 24.9585387,24.1328475 L24.9585387,0.411821576 C24.9585387,0.206489172 24.7533825,0.0422232475 24.4969372,0.0422232475 L24.4969372,0.0422232475 L24.4969372,0.0422232475 Z" id="Shape" opacity="0.05" fill="#000000"></path>
                            </g>
                        </g>
                    </g>
                </g>
            </g>
        </g>
    </g>
</svg>