<?xml version="1.0" encoding="UTF-8" standalone="no"?>
<svg width="101px" height="101px" viewBox="0 0 101 101" version="1.1" xmlns="http://www.w3.org/2000/svg" xmlns:xlink="http://www.w3.org/1999/xlink">
    <!-- Generator: Sketch 3.8.3 (29802) - http://www.bohemiancoding.com/sketch -->
    <title>junk icone copy 4</title>
    <desc>Created with Sketch.</desc>
    <defs></defs>
    <g id="Page-1" stroke="none" stroke-width="1" fill="none" fill-rule="evenodd">
        <g id="junk-icone-copy-4">
            <circle id="Oval-2" fill="#36D3DA" cx="50.5" cy="50.5" r="50.5"></circle>
            <g id="1f33b" transform="translate(25.000000, 20.000000)">
                <g id="Group">
                    <path d="M34.1646429,46.9746875 C27.68175,52.006375 25.9190357,61.0331875 25.9190357,61.0331875 L28.2506786,61.0331875 C36.9485357,48.3813125 53.8515,39.5463125 53.8515,39.5463125 C53.8515,39.5463125 42.4420714,40.5470313 34.1646429,46.9737188" id="Shape" fill="#83BF4F"></path>
                    <polygon id="Shape" fill="#75A843" points="25.5285 0 27.9392143 61.03125 23.1177857 61.03125"></polygon>
                    <path d="M19.21725,48.1836875 C24.83325,54.1744375 25.5285,61.03125 25.5285,61.03125 L23.1987857,61.03125 C14.5009286,46.2006562 0.149464286,41.0730625 0.149464286,41.0730625 C0.149464286,41.0730625 12.52125,41.0430312 19.21725,48.1836875" id="Shape" fill="#83BF4F"></path>
                    <g transform="translate(2.892857, 0.000000)" id="Shape" fill="#F4BC58">
                        <path d="M34.5291429,21.9005313 C29.4155357,20.5249063 26.892,21.6980625 26.3230714,23.8302813 C25.7541429,25.9625 27.3548571,28.2468125 32.4684643,29.6234062 C37.5820714,31 44.8383214,28.8154688 44.8383214,28.8154688 C44.8383214,28.8154688 39.6417857,23.277125 34.5291429,21.9005313"></path>
                        <path d="M11.1317143,23.8806562 C16.2433929,25.2562812 18.7688571,24.083125 19.3358571,21.9509062 C19.9067143,19.8177187 18.3040714,17.5334062 13.1904643,16.1568125 C8.07878571,14.7802187 0.822535714,16.9657187 0.822535714,16.9657187 C0.822535714,16.9657187 6.01810714,22.5040625 11.1317143,23.8806562"></path>
                        <path d="M21.8439643,11.1386875 C20.4746786,16.2740312 21.6424286,18.80925 23.7648214,19.3817812 C25.8872143,19.9533437 28.1629286,18.34425 29.53125,13.2079375 C30.9024643,8.071625 28.7270357,0.7808125 28.7270357,0.7808125 C28.7270357,0.7808125 23.2151786,6.00140625 21.8439643,11.1386875"></path>
                        <path d="M23.814,34.6444375 C25.1852143,29.5071562 24.0174643,26.9719375 21.8931429,26.400375 C19.77075,25.8288125 17.4969643,27.438875 16.1276786,32.5742187 C14.7564643,37.7115 16.9338214,45.0013437 16.9338214,45.0013437 C16.9338214,45.0013437 22.4447143,39.7797812 23.814,34.6444375"></path>
                        <path d="M30.4058571,13.88025 C25.8216429,16.5394687 24.8631429,19.161875 25.9614643,21.0751562 C27.0617143,22.9865 29.7993214,23.4640937 34.3854643,20.804875 C38.9696786,18.1456562 42.5626071,11.4457812 42.5626071,11.4457812 C42.5626071,11.4457812 34.9881429,11.222 30.4058571,13.88025"></path>
                        <path d="M15.2540357,31.9009375 C19.8363214,29.2426875 20.79675,26.6202812 19.6984286,24.7089375 C18.5981786,22.7956562 15.8586429,22.3180625 11.2744286,24.9772812 C6.69021429,27.6365 3.09728571,34.336375 3.09728571,34.336375 C3.09728571,34.336375 10.6698214,34.5591875 15.2540357,31.9009375"></path>
                        <path d="M13.8606429,15.2800937 C16.5066429,19.8845625 19.1188929,20.8484687 21.0214286,19.7440937 C22.9258929,18.6397187 23.4003214,15.8875 20.7523929,11.2820625 C18.1063929,6.676625 11.4373929,3.0670625 11.4373929,3.0670625 C11.4373929,3.0670625 11.2146429,10.6746562 13.8606429,15.2800937"></path>
                        <path d="M31.7982857,30.5010937 C29.1522857,25.896625 26.5419643,24.9327187 24.6375,26.0370937 C22.7349643,27.1414687 22.2605357,29.8936875 24.9065357,34.5000937 C27.5525357,39.1045625 34.2234643,42.714125 34.2234643,42.714125 C34.2234643,42.714125 34.4462143,35.1055625 31.7982857,30.5010937"></path>
                    </g>
                    <g transform="translate(2.892857, 0.000000)" id="Shape" fill="#FFCC66">
                        <path d="M26.811,11.7935625 C26.811,17.112 25.0270714,19.2568125 22.8294643,19.2568125 C20.6318571,19.2568125 18.8498571,17.112 18.8498571,11.7935625 C18.8498571,6.4770625 22.8294643,0 22.8294643,0 C22.8294643,0 26.811,6.4770625 26.811,11.7935625"></path>
                        <path d="M18.8498571,33.98375 C18.8498571,28.6653125 20.6318571,26.5205 22.8294643,26.5205 C25.0270714,26.5205 26.811,28.6653125 26.811,33.98375 C26.811,39.30025 22.8294643,45.7773125 22.8294643,45.7773125 C22.8294643,45.7773125 18.8498571,39.30025 18.8498571,33.98375"></path>
                        <path d="M33.8753571,26.888625 C28.5833571,26.888625 26.4455357,25.098375 26.4455357,22.8915625 C26.4455357,20.6837812 28.5833571,18.8945 33.8753571,18.8945 C39.1673571,18.8945 45.6145714,22.8915625 45.6145714,22.8915625 C45.6145714,22.8915625 39.1673571,26.888625 33.8753571,26.888625"></path>
                        <path d="M11.7855,18.8935312 C17.0775,18.8935312 19.2133929,20.6828125 19.2133929,22.8905937 C19.2133929,25.098375 17.0775,26.8876562 11.7855,26.8876562 C6.4935,26.8876562 0.0462857143,22.8905937 0.0462857143,22.8905937 C0.0462857143,22.8905937 6.49253571,18.8935312 11.7855,18.8935312"></path>
                        <path d="M33.453,17.8715 C29.7106071,21.6312188 26.9402143,21.882125 25.38675,20.3214688 C23.8332857,18.7608125 24.0830357,15.9785625 27.8254286,12.2169063 C31.5678214,8.4571875 38.94075,6.70471875 38.94075,6.70471875 C38.94075,6.70471875 37.1973214,14.1108125 33.453,17.8715"></path>
                        <path d="M12.2049643,27.9106562 C15.9492857,24.1509375 18.71775,23.8980937 20.2712143,25.4597187 C21.8266071,27.0213437 21.5768571,29.8035937 17.8325357,33.5642812 C14.0901429,37.324 6.71914286,39.0774375 6.71914286,39.0774375 C6.71914286,39.0774375 8.46257143,31.6713437 12.2049643,27.9106562"></path>
                        <path d="M27.8254286,33.5633125 C24.0830357,29.8035937 23.8323214,27.020375 25.38675,25.4597187 C26.9421429,23.8980937 29.7106071,24.1499687 33.453,27.9096875 C37.1973214,31.6713437 38.94075,39.0764687 38.94075,39.0764687 C38.94075,39.0764687 31.5678214,37.3230312 27.8254286,33.5633125"></path>
                        <path d="M17.8325357,12.2169062 C21.5768571,15.9775937 21.8275714,18.7598437 20.2712143,20.3214687 C18.71775,21.8830937 15.9492857,21.6312187 12.2049643,17.8705312 C8.46257143,14.1108125 6.71914286,6.70471875 6.71914286,6.70471875 C6.71914286,6.70471875 14.0901429,8.4571875 17.8325357,12.2169062"></path>
                    </g>
                    <g transform="translate(2.892857, 0.000000)" id="Shape" fill="#FFD68D">
                        <path d="M23.814,11.1377187 C25.1852143,16.2740312 24.0174643,18.8102188 21.8931429,19.3808125 C19.77075,19.952375 17.4969643,18.3432812 16.1276786,13.2069687 C14.7574286,8.07065625 16.9328571,0.7808125 16.9328571,0.7808125 C16.9328571,0.7808125 22.4427857,6.00140625 23.814,11.1377187"></path>
                        <path d="M21.8439643,34.6444375 C20.4746786,29.5071562 21.6424286,26.9719375 23.7648214,26.400375 C25.8872143,25.8288125 28.1629286,27.4369375 29.53125,32.5742188 C30.9024643,37.7115 28.7251071,45.0013438 28.7251071,45.0013438 C28.7251071,45.0013438 23.2151786,39.7797812 21.8439643,34.6444375"></path>
                        <path d="M34.5272143,23.8806562 C29.4155357,25.2562812 26.892,24.083125 26.3230714,21.9509062 C25.7541429,19.8177187 27.3548571,17.5334062 32.4684643,16.1577812 C37.5820714,14.7811875 44.8383214,16.9666875 44.8383214,16.9666875 C44.8383214,16.9666875 39.6417857,22.5040625 34.5272143,23.8806562"></path>
                        <path d="M11.1297857,21.9005313 C16.2433929,20.5249063 18.7688571,21.6980625 19.3358571,23.8302813 C19.9047857,25.9625 18.3040714,28.2468125 13.1904643,29.6234063 C8.07878571,31 0.822535714,28.8145 0.822535714,28.8145 C0.822535714,28.8145 6.01810714,23.277125 11.1297857,21.9005313"></path>
                        <path d="M31.7982857,15.2800937 C29.1522857,19.8855312 26.5419643,20.8484687 24.6375,19.7440937 C22.7349643,18.6397187 22.2586071,15.8875 24.9065357,11.2820625 C27.5525357,6.676625 34.2234643,3.0670625 34.2234643,3.0670625 C34.2234643,3.0670625 34.4462143,10.6746562 31.7982857,15.2800937"></path>
                        <path d="M13.8606429,30.5010937 C16.5066429,25.8956563 19.1188929,24.9327187 21.0214286,26.0370937 C22.9258929,27.1414687 23.4003214,29.8936875 20.7523929,34.4981562 C18.1063929,39.1045625 11.4373929,42.7131562 11.4373929,42.7131562 C11.4373929,42.7131562 11.2146429,35.1055625 13.8606429,30.5010937"></path>
                        <path d="M30.4058571,31.9009375 C25.8216429,29.2426875 24.8612143,26.6202812 25.9614643,24.7079687 C27.0617143,22.7956562 29.7993214,22.3180625 34.3835357,24.9763125 C38.9696786,27.6365 42.5626071,34.336375 42.5626071,34.336375 C42.5626071,34.336375 34.9881429,34.5591875 30.4058571,31.9009375"></path>
                        <path d="M15.2540357,13.88025 C19.8363214,16.5394687 20.79675,19.161875 19.6984286,21.0741875 C18.5981786,22.9865 15.8586429,23.4640937 11.2744286,20.804875 C6.69021429,18.1456562 3.09728571,11.4457812 3.09728571,11.4457812 C3.09728571,11.4457812 10.6698214,11.222 15.2540357,13.88025"></path>
                    </g>
                    <ellipse id="Oval" fill="#947151" cx="25.7232857" cy="22.6542187" rx="12.69675" ry="12.7555312"></ellipse>
                    <ellipse id="Oval" fill="#3E4347" cx="25.72425" cy="22.6551875" rx="9.62357143" ry="9.668125"></ellipse>
                </g>
            </g>
        </g>
    </g>
</svg>