<?xml version="1.0" encoding="UTF-8" standalone="no"?>
<svg width="101px" height="101px" viewBox="0 0 101 101" version="1.1" xmlns="http://www.w3.org/2000/svg" xmlns:xlink="http://www.w3.org/1999/xlink">
    <!-- Generator: Sketch 3.8.3 (29802) - http://www.bohemiancoding.com/sketch -->
    <title>junk icone copy 4</title>
    <desc>Created with Sketch.</desc>
    <defs></defs>
    <g id="Page-1" stroke="none" stroke-width="1" fill="none" fill-rule="evenodd">
        <g id="junk-icone-copy-4">
            <circle id="Oval-2" fill="#36D3DA" cx="50.5" cy="50.5" r="50.5"></circle>
            <g id="1f3db" transform="translate(24.000000, 21.000000)">
                <g id="Group">
                    <g transform="translate(0.000000, 48.688525)" id="Shape" fill="#ACB8BF">
                        <polygon points="0 3.72377049 54 3.72377049 54 5.41434426 0 5.41434426"></polygon>
                        <polygon points="3.15 0.342622951 50.85 0.342622951 50.85 2.03319672 3.15 2.03319672"></polygon>
                    </g>
                    <g transform="translate(0.900000, 46.885246)" id="Shape" fill="#DAE3EA">
                        <polygon points="0.675 3.83196721 51.525 3.83196721 51.525 5.52254098 0.675 5.52254098"></polygon>
                        <polygon points="3.825 0.450819672 48.375 0.450819672 48.375 2.14139344 3.825 2.14139344"></polygon>
                    </g>
                    <polygon id="Shape" fill="#94989B" points="2.5317 23.2343443 51.4737 23.2343443 51.4737 24.9267213 2.5317 24.9267213"></polygon>
                    <polygon id="Shape" fill="#DAE3EA" points="0 24.9267213 54 24.9267213 54 26.6190984 0 26.6190984"></polygon>
                    <polygon id="Shape" fill="#94989B" points="26.9901 2.56065574 0 17.3430328 2.2608 20.7277869 26.9901 4.22959016 51.741 20.7277869 54 17.3430328"></polygon>
                    <g id="Shape" fill="#DAE3EA">
                        <polygon points="26.9901 0 0 17.3430328 0 19.8811475 26.9901 2.53721311 54 19.8811475 54 17.3430328"></polygon>
                        <polygon points="26.9901 4.22959016 0 21.5744262 0 23.2659016 54 23.2659016 54 21.5744262"></polygon>
                    </g>
                    <polygon id="Shape" fill="#ACB8BF" points="26.9901 6.74606557 4.5738 21.5744262 49.4271 21.5744262"></polygon>
                    <g transform="translate(22.500000, 9.918033)" id="Shape" fill="#94989B">
                        <path d="M5.1786,8.69540984 L4.8168,8.90368852 C4.7799,8.82434426 4.7043,8.76754098 4.6143,8.76754098 L4.3875,8.76754098 C4.2975,8.76754098 4.221,8.82434426 4.185,8.90368852 L3.8232,8.69540984 L2.9538,8.19680328 L2.9538,9.19311475 L2.9538,10.1894262 L3.8232,9.69081967 L4.185,9.48254098 C4.221,9.56368852 4.2975,9.61959016 4.3875,9.61959016 L4.6143,9.61959016 C4.7025,9.61959016 4.7799,9.56278689 4.8168,9.48254098 L5.1786,9.69081967 L6.0462,10.1894262 L6.0462,9.19311475 L6.0462,8.19680328 L5.1786,8.69540984"></path>
                        <path d="M3.15,5.87688525 C3.2958,6.105 3.4983,6.27090164 3.7332,6.38540984 C3.969,6.49811475 4.2345,6.55491803 4.5009,6.55491803 C4.7673,6.55311475 5.0346,6.49811475 5.2686,6.3845082 C5.5044,6.27090164 5.7078,6.10409836 5.8527,5.87688525 C5.8842,6.14286885 5.7474,6.435 5.4909,6.64057377 C5.238,6.84885246 4.8699,6.97057377 4.5027,6.96967213 C4.1346,6.97057377 3.7674,6.84795082 3.5136,6.63967213 C3.2562,6.435 3.1185,6.14286885 3.15,5.87688525"></path>
                        <path d="M8.343,3.21344262 L8.343,3.14040984 C8.343,3.08360656 8.3376,3.07368852 8.3061,3.05745902 C8.253,3.03040984 8.1981,3.0042623 8.1423,2.98532787 C8.1,2.97 8.0541,2.95647541 8.0055,2.94385246 C7.4223,1.58237705 6.0723,0.629344262 4.4982,0.629344262 C2.9259,0.629344262 1.575,1.58327869 0.9918,2.94385246 C0.9423,2.95647541 0.8973,2.97 0.855,2.98532787 C0.7983,3.0042623 0.7425,3.03040984 0.6912,3.05745902 C0.6597,3.07368852 0.6525,3.08360656 0.6525,3.14040984 L0.6525,3.21344262 C0.6525,3.34959016 0.6363,3.29729508 0.7335,3.35319672 C0.7668,3.37213115 0.7956,3.39557377 0.8217,3.42442623 C0.7317,3.75081967 0.684,4.0952459 0.684,4.45229508 C0.684,6.56213115 2.3913,8.27254098 4.4982,8.27254098 C6.6051,8.27254098 8.3133,6.56213115 8.3133,4.45229508 C8.3133,4.0952459 8.2647,3.75172131 8.1747,3.42262295 C8.2017,3.39557377 8.2314,3.37122951 8.2638,3.35319672 C8.361,3.29729508 8.343,3.3504918 8.343,3.21344262 M4.4982,1.08196721 C5.7816,1.08196721 6.8985,1.80147541 7.4637,2.86 C7.0119,2.81852459 6.5088,2.82754098 6.2154,2.85278689 C5.7438,2.89336066 5.3487,2.9997541 5.0265,3.16565574 C4.7241,3.31713115 4.2714,3.31713115 3.9699,3.16565574 C3.6468,2.9997541 3.2517,2.89336066 2.7801,2.85278689 C2.4876,2.82754098 1.9854,2.81762295 1.5327,2.86 C2.0997,1.80147541 3.2157,1.08196721 4.4982,1.08196721 M4.4982,7.82352459 C2.6415,7.82352459 1.1331,6.31418033 1.1331,4.45319672 C1.1331,4.42704918 1.134,4.40270492 1.134,4.37655738 C1.2537,4.82737705 1.5192,5.11860656 1.9179,5.26918033 C2.3454,5.42967213 2.8269,5.4242623 3.2472,5.25385246 C3.4812,5.16098361 3.6846,5.01401639 3.8466,4.77598361 C4.1301,4.35762295 4.0446,4.09614754 4.1913,3.73729508 C4.32,3.42532787 4.6782,3.42532787 4.8069,3.73729508 C4.9527,4.09704918 4.8681,4.35762295 5.1516,4.77598361 C5.3136,5.01491803 5.5188,5.16188525 5.751,5.25385246 C6.1758,5.42336066 6.651,5.42877049 7.0812,5.26918033 C7.4799,5.11860656 7.7454,4.82737705 7.8642,4.37655738 C7.8642,4.40090164 7.8651,4.42704918 7.8651,4.45319672 C7.8642,6.31327869 6.3567,7.82352459 4.4982,7.82352459"></path>
                    </g>
                    <polygon id="Shape" fill="#DAE3EA" points="5.85 28.1311475 11.25 28.1311475 11.25 45.7618033 5.85 45.7618033"></polygon>
                    <g transform="translate(4.500000, 26.147541)" id="Shape" fill="#94989B">
                        <polygon points="0.675 19.6106557 7.425 19.6106557 7.425 21.1885246 0.675 21.1885246"></polygon>
                        <polygon points="0.675 0.449918033 7.425 0.449918033 7.425 1.98 0.675 1.98"></polygon>
                    </g>
                    <g transform="translate(6.300000, 27.950820)" id="Shape" fill="#C8D0D6">
                        <polygon points="0.09 0.882704918 0.7272 0.882704918 0.7272 17.1482787 0.09 17.1482787"></polygon>
                        <polygon points="3.7737 0.882704918 4.4109 0.882704918 4.4109 17.1482787 3.7737 17.1482787"></polygon>
                        <polygon points="2.5461 0.882704918 3.1824 0.882704918 3.1824 17.1482787 2.5461 17.1482787"></polygon>
                        <polygon points="1.3176 0.882704918 1.9539 0.882704918 1.9539 17.1482787 1.3176 17.1482787"></polygon>
                    </g>
                    <polygon id="Shape" fill="#DAE3EA" points="18.153 28.1311475 23.553 28.1311475 23.553 45.8168033 18.153 45.8168033"></polygon>
                    <g transform="translate(17.100000, 26.147541)" id="Shape" fill="#94989B">
                        <polygon points="0.3753 19.6665574 7.1253 19.6665574 7.1253 21.1885246 0.3753 21.1885246"></polygon>
                        <polygon points="0.3753 0.449918033 7.1253 0.449918033 7.1253 1.98 0.3753 1.98"></polygon>
                    </g>
                    <g transform="translate(18.000000, 27.950820)" id="Shape" fill="#C8D0D6">
                        <polygon points="0.6894 0.882704918 1.3257 0.882704918 1.3257 17.1482787 0.6894 17.1482787"></polygon>
                        <polygon points="4.374 0.882704918 5.0103 0.882704918 5.0103 17.1482787 4.374 17.1482787"></polygon>
                        <polygon points="3.1455 0.882704918 3.7827 0.882704918 3.7827 17.1482787 3.1455 17.1482787"></polygon>
                        <polygon points="1.917 0.882704918 2.5542 0.882704918 2.5542 17.1482787 1.917 17.1482787"></polygon>
                    </g>
                    <polygon id="Shape" fill="#DAE3EA" points="30.4506 28.1311475 35.8506 28.1311475 35.8506 45.8168033 30.4506 45.8168033"></polygon>
                    <g transform="translate(29.700000, 26.147541)" id="Shape" fill="#94989B">
                        <polygon points="0.072 19.6665574 6.822 19.6665574 6.822 21.1885246 0.072 21.1885246"></polygon>
                        <polygon points="0.072 0.449918033 6.822 0.449918033 6.822 1.98 0.072 1.98"></polygon>
                    </g>
                    <g transform="translate(30.600000, 27.950820)" id="Shape" fill="#C8D0D6">
                        <polygon points="0.3906 0.882704918 1.0269 0.882704918 1.0269 17.1482787 0.3906 17.1482787"></polygon>
                        <polygon points="4.0743 0.882704918 4.7106 0.882704918 4.7106 17.1482787 4.0743 17.1482787"></polygon>
                        <polygon points="2.844 0.882704918 3.4812 0.882704918 3.4812 17.1482787 2.844 17.1482787"></polygon>
                        <polygon points="1.6182 0.882704918 2.2554 0.882704918 2.2554 17.1482787 1.6182 17.1482787"></polygon>
                    </g>
                    <polygon id="Shape" fill="#DAE3EA" points="42.75 28.1311475 48.15 28.1311475 48.15 45.7618033 42.75 45.7618033"></polygon>
                    <g transform="translate(41.400000, 26.147541)" id="Shape" fill="#94989B">
                        <polygon points="0.6759 19.6106557 7.4259 19.6106557 7.4259 21.1885246 0.6759 21.1885246"></polygon>
                        <polygon points="0.6759 0.449918033 7.4259 0.449918033 7.4259 1.98 0.6759 1.98"></polygon>
                    </g>
                    <g transform="translate(43.200000, 27.950820)" id="Shape" fill="#C8D0D6">
                        <polygon points="0.09 0.882704918 0.7272 0.882704918 0.7272 17.1482787 0.09 17.1482787"></polygon>
                        <polygon points="3.771 0.882704918 4.4082 0.882704918 4.4082 17.1482787 3.771 17.1482787"></polygon>
                        <polygon points="2.5461 0.882704918 3.1824 0.882704918 3.1824 17.1482787 2.5461 17.1482787"></polygon>
                        <polygon points="1.323 0.882704918 1.9593 0.882704918 1.9593 17.1482787 1.323 17.1482787"></polygon>
                    </g>
                </g>
            </g>
        </g>
    </g>
</svg>