<?xml version="1.0" encoding="UTF-8" standalone="no"?>
<svg width="1608px" height="550px" viewBox="0 0 1608 550" version="1.1" xmlns="http://www.w3.org/2000/svg" xmlns:xlink="http://www.w3.org/1999/xlink" xmlns:sketch="http://www.bohemiancoding.com/sketch/ns">
    <!-- Generator: Sketch 3.3.3 (12081) - http://www.bohemiancoding.com/sketch -->
    <title>Frame desktop</title>
    <desc>Created with Sketch.</desc>
    <defs></defs>
    <g id="Page-1" stroke="none" stroke-width="1" fill="none" fill-rule="evenodd" sketch:type="MSPage">
        <g id="cforgood_area" sketch:type="MSLayerGroup" transform="translate(-1.000000, -1.000000)">
            <g id="Frame-desktop" transform="translate(1.000000, 0.113490)" sketch:type="MSShapeGroup">
                <path d="M1.0782444e-06,0.886509593 L1607.99996,0.886509593 L1607.99996,484.747197 L1154.0428,484.747194 L1154.0428,75.0449237 L454.476579,75.0449237 L454.476579,484.747194 L1.0782444e-06,484.747197 L1.0782444e-06,0.886509593 Z" id="Mask" opacity="0.697236474" fill="#FEFEFE"></path>
                <g id="Laptop" transform="translate(342.051737, 39.000000)" stroke="#8492A5">
                    <g id="webcam-+-bezel" transform="translate(96.757333, -0.000000)" stroke-width="2" fill="#FEFEFE">
                        <path d="M30.2744079,52.3901711 L700.29845,52.3901711 L700.29845,442.461753 L30.2744079,442.461753 L30.2744079,52.3901711 Z M34.2859366,0.293175057 C16.2396069,0.293175057 0.856531049,15.0858077 0.856531049,33.4083136 L0.856531049,469.203536 L730.954748,469.203522 L730.954748,33.4083136 C730.954709,15.0844752 715.627338,0.293175057 697.525343,0.293175057 L34.2859366,0.293175057 Z" id="Bezel"></path>
                    </g>
                    <ellipse id="webcam" stroke-width="2" cx="464.000149" cy="25.6737629" rx="5.34870489" ry="5.34328164"></ellipse>
                    <g id="bottom" transform="translate(0.000000, 469.166139)">
                        <path d="M856.878569,41.4237909 L68.5810941,41.4237909 C27.6006544,41.4237909 0,27.3763035 0,21.4025146 L0,3.24337196 C0,1.44802933 1.78513026,0 4.00484278,0 L921.453483,0 C923.67587,0 925.463675,1.44802933 925.463675,3.24337196 L925.463675,22.1171785 C925.454314,26.8393037 904.08089,41.4237909 856.878569,41.4237909 L856.878569,41.4237909 Z" id="Shape" stroke-width="2" fill="#FDFDFD"></path>
                        <path d="M0.668588111,19.369396 L922.976094,19.369396" id="Line"></path>
                    </g>
                    <path d="M562.951189,470.50196 L562.951189,474.625637 C562.951189,477.565778 557.156829,478.453717 552.770891,478.453717 L372.825171,478.453717 C368.210576,478.453717 362.374756,477.567114 362.374756,474.625637 L362.374756,470.50196" id="touchpad" fill="#FFFFFF"></path>
                </g>
            </g>
        </g>
    </g>
</svg>